<svg xmlns="http://www.w3.org/2000/svg" viewBox="0 0 421.05 421.02"><defs><style>.cls-1{fill:#e1323f;}.cls-2{fill:#3fa8f4;}.cls-3{fill:#033285;}.cls-4{fill:#68a8e1;}.cls-5{fill:#fcfcfd;}.cls-6{fill:#fbfcfd;}.cls-7{fill:#f3f5f9;}.cls-8{fill:#f6f7fa;}.cls-9{fill:#f2f5f8;}.cls-10{fill:#f2f4f8;}.cls-11{fill:#f0f3f7;}.cls-12{fill:#e4e9f1;}.cls-13{fill:#e1e6f0;}.cls-14{fill:#043285;}</style></defs><g id="Layer_2" data-name="Layer 2"><g id="Layer_1-2" data-name="Layer 1"><path class="cls-1" d="M29.28,391.43c-8.14,0-16.29-.15-24.42.2-4,.18-4.87-1.18-4.86-5Q.17,270.76.08,154.87c0-20.93,0-41.86,0-62.8C.26,41.59,41.07.26,91.59.14c98.52-.23,197-.05,295.56-.14,3.41,0,4.6.79,4.48,4.36-.29,8.3-.16,16.61-.19,24.91l-.69.75c-1-.05-2-.16-3-.16q-148,0-296.09,0a55.2,55.2,0,0,0-8.44.47c-32.72,5.09-53.78,33.79-53.6,64.31.59,97,.22,194.07.23,291.11,0,1.66.11,3.31.16,5Z"/><path class="cls-2" d="M29.28,391.43l.75-.7,1,.47c1.59,1.37,3.5.79,5.27.79q146.8,0,293.61,0c1.76,0,3.68.63,5.24-.83,8.5-1.52,16.8-3.62,24.34-8,18.42-10.82,28.52-27.11,31.7-48,1.46-1.55.84-3.48.84-5.24q0-146.8,0-293.61c0-1.77.58-3.69-.79-5.27l-.47-1,.7-.75c8.63.14,17.27.38,25.9.35,2.83,0,3.88.9,3.65,3.72-.19,2.31,0,4.65,0,7,0,95.72.31,191.44-.15,287.15-.18,39.15-19,67.58-54,85a83.63,83.63,0,0,1-37.58,8.47Q181.64,421,34.07,421c-3.69,0-4.89-.87-4.78-4.67C29.55,408.05,29.31,399.73,29.28,391.43Z"/><path class="cls-3" d="M31,391.2l-1-.47c-.05-1.66-.16-3.31-.16-5,0-97,.36-194.07-.23-291.11-.18-30.52,20.88-59.22,53.6-64.31a55.2,55.2,0,0,1,8.44-.47q148,0,296.09,0c1,0,2,.11,3,.16.15.33.3.65.46,1,0,2.16-.15,4.32-.15,6.47q0,143.85,0,287.69c0,3.32.07,6.64.1,10-3.18,20.88-13.28,37.17-31.7,48-7.54,4.43-15.84,6.53-24.34,8-.83,0-1.66-.12-2.49-.12q-148.81,0-297.65,0C33.66,391.05,32.33,391.15,31,391.2Zm168.52-99.73c0-9.3-.07-18.61,0-27.91,0-2.61-.4-3.85-3.46-3.83q-27.17.19-54.34,0c-3,0-3.66,1.09-3.57,3.79.16,5.32.26,10.65,0,16-.19,3.48,1.19,4.12,4.29,4,7.14-.2,14.29.05,21.43-.12,2.77-.06,3.8.69,3.71,3.6-.2,6.47-.27,13,0,19.43.15,3.35-1.26,5.24-3.88,6.79-6.69,3.95-14.1,4.76-21.6,4.85-16.88.21-28.34-8.17-33.5-24.29-4.35-13.56-3.88-27.52-3.28-41.48.34-8,1.53-15.87,4.67-23.31,5.71-13.52,16.6-20.21,31.1-19.25,15,1,22.43,7.29,26.5,22.92.59,2.26,1.5,2.91,3.7,2.88q12.7-.15,25.42,0c2.13,0,2.78-.47,2.51-2.81-2.62-22.54-16.36-39.45-37.37-45.72a90,90,0,0,0-18.14-3C110.4,181.12,84.34,199.06,76,231.4a129.62,129.62,0,0,0-.65,61.72c6.27,27.27,23.09,44.91,51.34,49.51a93.08,93.08,0,0,0,57.2-8.48,54.46,54.46,0,0,0,12.56-8.88,8.91,8.91,0,0,0,3.13-7.38C199.38,309.09,199.52,300.28,199.52,291.47Zm16.4-27.57a119.2,119.2,0,0,0,1.65,22.33,104.18,104.18,0,0,0,3,12.06c9.08,28.32,32.08,45.32,61.46,45.54,29.18.21,52.16-15.65,61.27-44,8-25,7.92-50.47-1.25-75.28-9.38-25.39-31.44-40.27-58.75-40.74-27-.47-49.13,13.69-60,38.29C217.47,235.42,215.87,249.5,215.92,263.9ZM158.58,75.69c-8.24,0-15.32.18-22.37-.09-3.2-.12-5.14,1-7.11,3.41-17.87,21.62-35.87,43.14-53.8,64.71-.65.79-2,1.41-1.16,3.21,7.63,0,15.4,0,23.17,0,1.74,0,2.68-.93,3.67-2.11C119.87,122.13,138.78,99.44,158.58,75.69Zm-49.94,71.24c8.17,0,15-.2,21.76.08,3.51.15,5.74-1,8-3.72,17.53-21.25,35.22-42.37,52.82-63.56.88-1.06,2.37-1.87,2.17-4-6.78,0-13.54.21-20.28-.09a9.21,9.21,0,0,0-8.4,3.86c-11.54,14.15-23.31,28.11-35,42.14Zm137.88-29.78c-4.32,0-8.64.1-13,0-2.36-.08-3.18.71-3.14,3.13.13,7.8.2,15.61,0,23.4-.1,3.17,1.34,3.31,3.82,3.42,2.95.13,3.64-1,3.53-3.7-.19-5.14.13-10.3-.12-15.43-.15-3.16,1.41-3.35,3.88-3.41,2.69-.06,3.86.59,3.73,3.56-.23,5.3.12,10.63-.13,15.93-.15,3.12,1.54,3,3.69,3s3.87.21,3.72-3c-.24-5.3.09-10.63-.12-15.93-.12-2.85.81-3.67,3.62-3.62s3.9.75,3.8,3.65c-.17,5.31.11,10.63-.09,15.94-.12,3.19,1.8,2.91,3.85,2.9s3.93.36,3.81-2.88c-.23-6,0-12-.09-17.93s-2.73-8.76-8.83-9C254.49,117,250.5,117.15,246.52,117.15Zm68.14,15c-2.45,1.55-4.39,3.14-6.59,4.09-4.06,1.76-4.24,5-4.06,8.66.08,1.89,1.1,2.33,2.56,2,1.61-.3,4.58,1.17,4.61-1.19.06-4.56,3.76-5.07,6.26-6.84,3.48-2.47,12.76.55,13.17,4.74.46,4.61,3.19,3.32,5.49,3.27,3.82-.07,1.73-3.14,2.1-4.87.53-2.45-.95-4-3-5.19-2.38-1.42-4.68-3-7.45-4.74a58.36,58.36,0,0,1,6.67-4.18c3.78-1.73,4-4.8,3.84-8.28-.09-1.56-.41-2.71-2.21-2.45s-4.77-1-4.82,1c-.12,4.68-3.82,5.42-6.5,7.27C321,128,312.09,124.6,311.6,120c-.45-4.07-2.94-2.66-4.93-2.86-3.38-.33-2.43,2.23-2.64,4.06a5.84,5.84,0,0,0,3.49,6.45C309.85,128.91,312,130.46,314.66,132.12Zm-26.78,14.82v0c2.66,0,5.31-.08,8,0s4.93.39,4.93-3.84-2.44-3.42-4.8-3.44-5,0-7.46,0c-11.07,0-10.92,0-10.75-11.14.06-3.47,1.42-4.14,4.46-4,5.3.18,10.61,0,15.91.08,3.05.07,2.45-2,2.44-3.72s.64-3.83-2.4-3.78c-6.79.12-13.6-.1-20.38.22-4.67.23-7.12,3.27-7.27,7.88s-.18,9.29,0,13.92c.22,4.9,2.95,7.51,7.9,7.77C281.58,147.07,284.74,146.94,287.88,146.94Zm-73.48,0v0c3,0,6-.16,9,.05s4-.55,4.06-3.79c0-3.52-1.63-3.7-4.26-3.56s-5.31,0-8,0c-11.24,0-11.13,0-10.82-11.52.08-2.87,1-3.73,3.76-3.65,5.31.17,10.64-.08,16,.1,2.81.1,3.39-1.16,3.24-3.58-.12-2,.33-4-2.86-4-6.64.16-13.3-.09-19.93.21-4.67.2-7.26,3-7.36,7.76s-.16,9.31,0,14c.21,5.26,2.82,7.69,8.22,7.91C208.41,147.06,211.41,147,214.4,147Zm-32.27,0v0c2.65,0,5.31,0,8,0,2.49,0,4.74.57,4.69-3.57,0-3.79-1.76-3.9-4.51-3.74-2.32.13-4.65,0-7,0-11.79,0-11.71,0-11.12-11.73.13-2.57.91-3.5,3.5-3.43,5.47.15,11-.06,16.43.08,3,.08,2.53-1.94,2.49-3.68s.75-3.87-2.33-3.82c-6.81.1-13.62-.11-20.41.25-4.46.23-6.84,3.23-7,7.6-.2,4.64-.23,9.31,0,13.94.26,5.06,3.24,7.81,8.32,8C176.14,147.07,179.14,147,182.13,147ZM292.7,128.84c-1.82,0-3.66.14-5.47,0-2.61-.26-3.43.75-3.45,3.35,0,2.76,1.12,3.38,3.58,3.26a96.74,96.74,0,0,1,9.93,0c2.64.15,3.4-.83,3.44-3.41,0-2.77-1.11-3.45-3.56-3.21A44.41,44.41,0,0,1,292.7,128.84Zm-74.17,6.55c1.81,0,3.64-.11,5.44,0,2.55.2,3.44-.76,3.46-3.37,0-2.77-1.15-3.35-3.57-3.25-3.45.14-6.93.16-10.38,0-2.4-.12-3.13.75-3.12,3.11s.41,3.83,3.23,3.52A47.85,47.85,0,0,1,218.53,135.39Z"/><path class="cls-4" d="M391.16,335.11c0-3.32-.1-6.64-.1-10q0-143.85,0-287.69c0-2.15.1-4.31.15-6.47,1.37,1.58.79,3.5.79,5.27q0,146.81,0,293.61C392,331.63,392.62,333.56,391.16,335.11Z"/><path class="cls-4" d="M31,391.2c1.33-.05,2.66-.15,4-.15q148.83,0,297.65,0c.83,0,1.66.08,2.49.12-1.56,1.46-3.48.83-5.24.83q-146.8.06-293.61,0C34.5,392,32.59,392.57,31,391.2Z"/><path class="cls-5" d="M199.52,291.47c0,8.81-.14,17.62.08,26.42a8.91,8.91,0,0,1-3.13,7.38,54.46,54.46,0,0,1-12.56,8.88,93.08,93.08,0,0,1-57.2,8.48c-28.25-4.6-45.07-22.24-51.34-49.51A129.62,129.62,0,0,1,76,231.4c8.32-32.34,34.38-50.28,67.72-47.43a90,90,0,0,1,18.14,3c21,6.27,34.75,23.18,37.37,45.72.27,2.34-.38,2.83-2.51,2.81q-12.72-.12-25.42,0c-2.2,0-3.11-.62-3.7-2.88-4.07-15.63-11.45-21.93-26.5-22.92-14.5-1-25.39,5.73-31.1,19.25-3.14,7.44-4.33,15.32-4.67,23.31-.6,14-1.07,27.92,3.28,41.48,5.16,16.12,16.62,24.5,33.5,24.29,7.5-.09,14.91-.9,21.6-4.85,2.62-1.55,4-3.44,3.88-6.79-.29-6.46-.22-13,0-19.43.09-2.91-.94-3.66-3.71-3.6-7.14.17-14.29-.08-21.43.12-3.1.09-4.48-.55-4.29-4,.3-5.3.2-10.63,0-16-.09-2.7.61-3.81,3.57-3.79q27.16.18,54.34,0c3.06,0,3.49,1.22,3.46,3.83C199.45,272.86,199.52,282.17,199.52,291.47Z"/><path class="cls-5" d="M215.92,263.9c0-14.4,1.55-28.48,7.43-41.84,10.83-24.6,32.92-38.76,60-38.29,27.31.47,49.37,15.35,58.75,40.74,9.17,24.81,9.28,50.29,1.25,75.28-9.11,28.39-32.09,44.25-61.27,44-29.38-.22-52.38-17.22-61.46-45.54a104.18,104.18,0,0,1-3-12.06A119.2,119.2,0,0,1,215.92,263.9Zm32.53-.38c-.17,12.36.63,24.59,6.08,36,5.59,11.7,14.75,17.93,28,17.93s22.27-6.39,27.82-18.12c3.54-7.47,4.93-15.47,5.38-23.62.83-15.12,1.2-30.24-4.4-44.72-3.71-9.63-10-16.79-20.34-19.48C273.5,207,258.69,215,252.49,232.59,249,242.58,248.29,253,248.45,263.52Z"/><path class="cls-6" d="M158.58,75.69c-19.8,23.75-38.71,46.44-57.6,69.15C100,146,99.05,147,97.31,147c-7.77-.06-15.54,0-23.17,0-.84-1.8.51-2.42,1.16-3.21,17.93-21.57,35.93-43.09,53.8-64.71,2-2.37,3.91-3.53,7.11-3.41C143.26,75.87,150.34,75.69,158.58,75.69Z"/><path class="cls-6" d="M108.64,146.93l21-25.33c11.68-14,23.45-28,35-42.14a9.21,9.21,0,0,1,8.4-3.86c6.74.3,13.5.09,20.28.09.2,2.17-1.29,3-2.17,4-17.6,21.19-35.29,42.31-52.82,63.56-2.22,2.7-4.45,3.87-8,3.72C123.61,146.73,116.81,146.93,108.64,146.93Z"/><path class="cls-7" d="M246.52,117.15c4,0,8-.12,12,0,6.1.24,8.75,2.95,8.83,9s-.14,12,.09,17.93c.12,3.24-1.8,2.87-3.81,2.88s-4,.29-3.85-2.9c.2-5.31-.08-10.63.09-15.94.1-2.9-1.09-3.6-3.8-3.65s-3.74.77-3.62,3.62c.21,5.3-.12,10.63.12,15.93.15,3.17-1.63,2.93-3.72,3s-3.84.12-3.69-3c.25-5.3-.1-10.63.13-15.93.13-3-1-3.62-3.73-3.56-2.47.06-4,.25-3.88,3.41.25,5.13-.07,10.29.12,15.43.11,2.74-.58,3.83-3.53,3.7-2.48-.11-3.92-.25-3.82-3.42.23-7.79.16-15.6,0-23.4,0-2.42.78-3.21,3.14-3.13C237.88,117.25,242.2,117.15,246.52,117.15Z"/><path class="cls-8" d="M314.66,132.12c-2.66-1.66-4.81-3.21-7.14-4.43a5.84,5.84,0,0,1-3.49-6.45c.21-1.83-.74-4.39,2.64-4.06,2,.2,4.48-1.21,4.93,2.86.49,4.56,9.41,8,13.16,5.4,2.68-1.85,6.38-2.59,6.5-7.27.05-2,3.13-.73,4.82-1s2.12.89,2.21,2.45c.2,3.48-.06,6.55-3.84,8.28a58.36,58.36,0,0,0-6.67,4.18c2.77,1.77,5.07,3.32,7.45,4.74,2,1.2,3.5,2.74,3,5.19-.37,1.73,1.72,4.8-2.1,4.87-2.3,0-5,1.34-5.49-3.27-.41-4.19-9.69-7.21-13.17-4.74-2.5,1.77-6.2,2.28-6.26,6.84,0,2.36-3,.89-4.61,1.19-1.46.28-2.48-.16-2.56-2-.18-3.65,0-6.9,4.06-8.66C310.27,135.26,312.21,133.67,314.66,132.12Z"/><path class="cls-9" d="M287.88,146.94c-3.14,0-6.3.13-9.44,0-4.95-.26-7.68-2.87-7.9-7.77-.2-4.63-.17-9.28,0-13.92s2.6-7.65,7.27-7.88c6.78-.32,13.59-.1,20.38-.22,3-.05,2.4,2.08,2.4,3.78s.61,3.79-2.44,3.72c-5.3-.12-10.61.1-15.91-.08-3-.11-4.4.56-4.46,4-.17,11.14-.32,11.14,10.75,11.14,2.49,0,5,0,7.46,0s4.8-.84,4.8,3.44-2.15,4-4.93,3.84-5.3,0-8,0Z"/><path class="cls-10" d="M214.4,147c-3,0-6,.1-9,0-5.4-.22-8-2.65-8.22-7.91-.19-4.65-.13-9.31,0-14s2.69-7.56,7.36-7.76c6.63-.3,13.29,0,19.93-.21,3.19-.07,2.74,2,2.86,4,.15,2.42-.43,3.68-3.24,3.58-5.31-.18-10.64.07-16-.1-2.77-.08-3.68.78-3.76,3.65-.31,11.52-.42,11.52,10.82,11.52,2.66,0,5.32.11,8,0s4.3,0,4.26,3.56c0,3.24-1.15,4-4.06,3.79s-6-.05-9-.05Z"/><path class="cls-11" d="M182.13,147c-3,0-6,.1-9,0-5.08-.21-8.06-3-8.32-8-.24-4.63-.21-9.3,0-13.94.19-4.37,2.57-7.37,7-7.6,6.79-.36,13.6-.15,20.41-.25,3.08,0,2.28,2.16,2.33,3.82s.56,3.76-2.49,3.68c-5.47-.14-11,.07-16.43-.08-2.59-.07-3.37.86-3.5,3.43-.59,11.73-.67,11.73,11.12,11.73,2.33,0,4.66.1,7,0,2.75-.16,4.46-.05,4.51,3.74.05,4.14-2.2,3.6-4.69,3.57-2.66,0-5.32,0-8,0Z"/><path class="cls-12" d="M292.7,128.84a44.41,44.41,0,0,0,4.47,0c2.45-.24,3.6.44,3.56,3.21,0,2.58-.8,3.56-3.44,3.41a96.74,96.74,0,0,0-9.93,0c-2.46.12-3.61-.5-3.58-3.26,0-2.6.84-3.61,3.45-3.35C289,129,290.88,128.84,292.7,128.84Z"/><path class="cls-13" d="M218.53,135.39a47.85,47.85,0,0,0-4.94,0c-2.82.31-3.22-1.14-3.23-3.52s.72-3.23,3.12-3.11c3.45.17,6.93.15,10.38,0,2.42-.1,3.59.48,3.57,3.25,0,2.61-.91,3.57-3.46,3.37C222.17,135.28,220.34,135.39,218.53,135.39Z"/><path class="cls-14" d="M248.45,263.52c-.16-10.51.5-20.94,4-30.93,6.2-17.56,21-25.64,38.48-21.11,10.38,2.69,16.63,9.85,20.34,19.48,5.6,14.48,5.23,29.6,4.4,44.72-.45,8.15-1.84,16.15-5.38,23.62-5.55,11.73-14.54,18.11-27.82,18.12s-22.39-6.23-28-17.93C249.08,288.11,248.28,275.88,248.45,263.52Z"/></g></g></svg>