<svg width="653" height="566" viewBox="0 0 653 566" fill="none" xmlns="http://www.w3.org/2000/svg">
<path fill-rule="evenodd" clip-rule="evenodd" d="M649.294 340.735C607.308 316.502 565.491 292.324 523.617 268.204C481.857 244.083 439.983 219.906 397.997 195.672C393.376 192.967 385.148 193.361 379.85 196.405C318.534 231.741 257.443 267.02 196.464 302.243C135.317 337.523 74.2256 372.802 13.0217 408.138C7.78052 411.182 7.21695 415.803 11.7819 418.395C53.6552 442.573 95.6413 466.806 137.571 491.04C179.613 515.33 221.543 539.563 263.417 563.684C267.925 566.276 275.815 565.995 281 563.008C342.035 527.784 403.239 492.449 464.555 457.056C525.703 421.72 586.963 386.384 648.054 351.105C653.295 348.062 653.915 343.384 649.294 340.735Z" fill="url(#paint0_linear_201_2)"/>
<path fill-rule="evenodd" clip-rule="evenodd" d="M630.527 335.55C589.724 311.993 549.091 288.549 508.401 265.048C467.148 241.265 425.838 217.369 384.359 193.418C379.794 190.769 371.679 191.107 366.437 194.15C305.91 229.092 245.608 263.92 185.418 298.693C125.003 333.522 64.7576 368.35 4.28638 403.235C4.11731 403.348 3.94824 403.404 3.77917 403.517H0.00323486V408.871C0.00323486 408.927 0.00323486 408.984 0.00323486 408.984V409.04C0.059592 410.674 1.07402 412.196 3.04652 413.38C44.3563 437.219 85.8352 461.17 127.258 485.066C168.737 509.018 210.215 532.969 251.469 556.808C255.921 559.401 263.698 559.063 268.827 556.132C329.073 521.36 389.487 486.475 450.071 451.533C510.43 416.648 570.901 381.763 631.26 346.935C633.683 345.526 635.092 343.779 635.43 342.088C635.543 341.468 635.543 340.904 635.43 340.284V335.55H630.527V335.55Z" fill="#414021"/>
<path fill-rule="evenodd" clip-rule="evenodd" d="M632.443 331.042C591.021 307.09 549.711 283.251 508.401 259.412C467.148 235.629 425.838 211.734 384.359 187.782C379.794 185.133 371.679 185.471 366.437 188.515C305.91 223.456 245.608 258.285 185.418 293.057C125.003 327.886 64.7576 362.715 4.28637 397.6C-0.898484 400.587 -1.46205 405.151 3.04652 407.744C44.3563 431.583 85.8352 455.535 127.258 479.43C168.737 503.382 210.215 527.334 251.469 551.173C255.921 553.765 263.698 553.427 268.827 550.497C329.073 515.724 389.488 480.839 450.071 445.898C510.43 411.013 570.901 376.128 631.26 341.299C636.445 338.256 637.008 333.634 632.443 331.042Z" fill="url(#paint1_linear_201_2)"/>
<path fill-rule="evenodd" clip-rule="evenodd" d="M623.37 319.996L371.002 174.313L7.66779 384.074L260.035 529.814L623.37 319.996Z" fill="#F7F6F4"/>
<path fill-rule="evenodd" clip-rule="evenodd" d="M625.906 319.996L262.571 529.814V547.284L625.906 337.467V319.996Z" fill="#DBDCDC"/>
<path fill-rule="evenodd" clip-rule="evenodd" d="M10.2039 384.074L262.571 529.814V547.284L10.2039 401.545V384.074Z" fill="#C8C8C9"/>
<path fill-rule="evenodd" clip-rule="evenodd" d="M594.684 313.909C592.824 314.98 592.824 316.671 594.684 317.742C596.544 318.812 599.474 318.812 601.278 317.742C603.137 316.671 603.137 314.98 601.278 313.909C599.474 312.839 596.487 312.839 594.684 313.909Z" fill="#B4B5B5"/>
<path fill-rule="evenodd" clip-rule="evenodd" d="M619.65 306.019C619.65 308.95 618.861 312.106 617.509 315.093L615.987 314.191C616.945 311.88 617.509 309.457 617.509 307.203C617.509 300.947 613.113 298.411 607.702 301.567C602.799 304.385 598.742 310.922 598.009 316.727L596.262 315.713C597.671 309.119 602.292 302.243 607.702 299.087C614.296 295.368 619.65 298.467 619.65 306.019Z" fill="url(#paint2_linear_201_2)"/>
<path fill-rule="evenodd" clip-rule="evenodd" d="M578.228 304.441C576.368 305.512 576.368 307.203 578.228 308.274C580.031 309.344 583.018 309.344 584.821 308.274C586.681 307.203 586.681 305.512 584.821 304.441C583.018 303.371 580.087 303.371 578.228 304.441Z" fill="#B4B5B5"/>
<path fill-rule="evenodd" clip-rule="evenodd" d="M603.194 296.551C603.194 299.482 602.405 302.638 601.052 305.625L599.531 304.723C600.489 302.412 601.052 299.989 601.052 297.735C601.052 291.479 596.656 288.943 591.246 292.099C586.343 294.917 582.285 301.454 581.553 307.259L579.806 306.245C581.215 299.651 585.836 292.775 591.246 289.619C597.84 285.9 603.194 288.943 603.194 296.551Z" fill="url(#paint3_linear_201_2)"/>
<path fill-rule="evenodd" clip-rule="evenodd" d="M561.828 294.917C559.968 295.988 559.968 297.678 561.828 298.749C563.631 299.82 566.618 299.82 568.421 298.749C570.281 297.678 570.281 295.988 568.421 294.917C566.618 293.846 563.631 293.846 561.828 294.917Z" fill="#B4B5B5"/>
<path fill-rule="evenodd" clip-rule="evenodd" d="M586.738 287.083C586.738 290.014 585.949 293.17 584.596 296.157L583.074 295.255C584.032 292.944 584.596 290.521 584.596 288.267C584.596 282.011 580.2 279.475 574.79 282.631C569.887 285.449 565.829 291.986 565.096 297.791L563.349 296.777C564.758 290.183 569.38 283.307 574.79 280.151C581.44 276.375 586.738 279.475 586.738 287.083Z" fill="url(#paint4_linear_201_2)"/>
<path fill-rule="evenodd" clip-rule="evenodd" d="M545.371 285.449C543.512 286.52 543.512 288.21 545.371 289.281C547.175 290.352 550.162 290.352 551.965 289.281C553.825 288.21 553.825 286.52 551.965 285.449C550.162 284.378 547.175 284.378 545.371 285.449Z" fill="#B4B5B5"/>
<path fill-rule="evenodd" clip-rule="evenodd" d="M570.281 277.559C570.281 280.489 569.492 283.645 568.14 286.632L566.618 285.731C567.576 283.42 568.14 280.997 568.14 278.742C568.14 272.487 563.744 269.951 558.334 273.107C553.43 275.925 549.373 282.462 548.64 288.267L546.893 287.252C548.302 280.659 552.923 273.783 558.334 270.627C564.984 266.907 570.281 269.951 570.281 277.559Z" fill="url(#paint5_linear_201_2)"/>
<path fill-rule="evenodd" clip-rule="evenodd" d="M528.915 275.925C527.055 276.995 527.055 278.686 528.915 279.757C530.719 280.828 533.705 280.828 535.509 279.757C537.369 278.686 537.369 276.995 535.509 275.925C533.705 274.91 530.775 274.91 528.915 275.925Z" fill="#B4B5B5"/>
<path fill-rule="evenodd" clip-rule="evenodd" d="M553.881 268.091C553.881 271.021 553.092 274.177 551.74 277.164L550.218 276.263C551.176 273.952 551.74 271.529 551.74 269.274C551.74 263.019 547.344 260.483 541.934 263.639C537.031 266.457 532.973 272.994 532.24 278.799L530.493 277.784C531.902 271.19 536.523 264.315 541.934 261.159C548.527 257.439 553.881 260.483 553.881 268.091Z" fill="url(#paint6_linear_201_2)"/>
<path fill-rule="evenodd" clip-rule="evenodd" d="M512.459 266.457C510.599 267.527 510.599 269.218 512.459 270.289C514.262 271.36 517.249 271.36 519.053 270.289C520.912 269.218 520.912 267.527 519.053 266.457C517.249 265.386 514.319 265.386 512.459 266.457Z" fill="#B4B5B5"/>
<path fill-rule="evenodd" clip-rule="evenodd" d="M537.425 258.567C537.425 261.497 536.636 264.653 535.284 267.64L533.762 266.738C534.72 264.428 535.284 262.004 535.284 259.75C535.284 253.494 530.888 250.958 525.477 254.114C520.574 256.932 516.517 263.47 515.784 269.274L514.037 268.26C515.446 261.666 520.067 254.791 525.477 251.635C532.127 247.915 537.425 251.015 537.425 258.567Z" fill="url(#paint7_linear_201_2)"/>
<path fill-rule="evenodd" clip-rule="evenodd" d="M496.059 256.932C494.199 258.003 494.199 259.694 496.059 260.765C497.862 261.835 500.849 261.835 502.653 260.765C504.512 259.694 504.512 258.003 502.653 256.932C500.849 255.918 497.862 255.918 496.059 256.932Z" fill="#B4B5B5"/>
<path fill-rule="evenodd" clip-rule="evenodd" d="M520.969 249.099C520.969 252.029 520.18 255.185 518.827 258.172L517.305 257.27C518.263 254.96 518.827 252.536 518.827 250.282C518.827 244.026 514.431 241.49 509.021 244.646C504.118 247.464 500.06 254.002 499.327 259.806L497.58 258.792C498.989 252.198 503.611 245.323 509.021 242.167C515.671 238.447 520.969 241.49 520.969 249.099Z" fill="url(#paint8_linear_201_2)"/>
<path fill-rule="evenodd" clip-rule="evenodd" d="M479.603 247.464C477.743 248.535 477.743 250.226 479.603 251.296C481.406 252.367 484.393 252.367 486.196 251.296C488.056 250.226 488.056 248.535 486.196 247.464C484.393 246.393 481.406 246.393 479.603 247.464Z" fill="#B4B5B5"/>
<path fill-rule="evenodd" clip-rule="evenodd" d="M504.569 239.574C504.569 242.505 503.78 245.661 502.427 248.648L500.906 247.746C501.864 245.435 502.427 243.012 502.427 240.758C502.427 234.502 498.031 231.966 492.621 235.122C487.718 237.94 483.66 244.477 482.928 250.282L481.181 249.268C482.589 242.674 487.211 235.798 492.621 232.642C499.215 228.923 504.569 232.022 504.569 239.574Z" fill="url(#paint9_linear_201_2)"/>
<path fill-rule="evenodd" clip-rule="evenodd" d="M463.146 237.996C461.286 239.067 461.286 240.758 463.146 241.828C464.95 242.899 467.937 242.899 469.74 241.828C471.6 240.758 471.6 239.067 469.74 237.996C467.937 236.925 465.006 236.925 463.146 237.996Z" fill="#B4B5B5"/>
<path fill-rule="evenodd" clip-rule="evenodd" d="M488.112 230.106C488.112 233.037 487.323 236.193 485.971 239.18L484.449 238.278C485.407 235.967 485.971 233.544 485.971 231.29C485.971 225.034 481.575 222.498 476.165 225.654C471.262 228.472 467.204 235.009 466.471 240.814L464.724 239.8C466.133 233.206 470.754 226.33 476.165 223.174C482.758 219.455 488.112 222.498 488.112 230.106Z" fill="url(#paint10_linear_201_2)"/>
<path fill-rule="evenodd" clip-rule="evenodd" d="M446.69 228.472C444.83 229.543 444.83 231.233 446.69 232.304C448.493 233.375 451.48 233.375 453.284 232.304C455.144 231.233 455.144 229.543 453.284 228.472C451.537 227.401 448.55 227.401 446.69 228.472Z" fill="#B4B5B5"/>
<path fill-rule="evenodd" clip-rule="evenodd" d="M471.656 220.638C471.656 223.569 470.867 226.725 469.515 229.712L467.993 228.81C468.951 226.499 469.515 224.076 469.515 221.822C469.515 215.566 465.119 213.03 459.708 216.186C454.805 219.004 450.748 225.541 450.015 231.346L448.268 230.332C449.677 223.738 454.298 216.862 459.708 213.706C466.359 209.93 471.656 213.03 471.656 220.638Z" fill="url(#paint11_linear_201_2)"/>
<path fill-rule="evenodd" clip-rule="evenodd" d="M430.29 219.004C428.43 220.075 428.43 221.765 430.29 222.836C432.093 223.907 435.08 223.907 436.884 222.836C438.744 221.765 438.744 220.075 436.884 219.004C435.08 217.933 432.093 217.933 430.29 219.004Z" fill="#B4B5B5"/>
<path fill-rule="evenodd" clip-rule="evenodd" d="M455.2 211.114C455.2 214.044 454.411 217.2 453.058 220.187L451.537 219.286C452.495 216.975 453.058 214.552 453.058 212.297C453.058 206.042 448.662 203.506 443.252 206.662C438.349 209.479 434.291 216.017 433.559 221.822L431.812 220.807C433.221 214.213 437.842 207.338 443.252 204.182C449.902 200.462 455.2 203.506 455.2 211.114Z" fill="url(#paint12_linear_201_2)"/>
<path fill-rule="evenodd" clip-rule="evenodd" d="M413.834 209.479C411.974 210.55 411.974 212.241 413.834 213.312C415.637 214.383 418.624 214.383 420.428 213.312C422.287 212.241 422.287 210.55 420.428 209.479C418.624 208.409 415.694 208.409 413.834 209.479Z" fill="#B4B5B5"/>
<path fill-rule="evenodd" clip-rule="evenodd" d="M438.8 201.646C438.8 204.576 438.011 207.732 436.658 210.719L435.137 209.818C436.095 207.507 436.658 205.084 436.658 202.829C436.658 196.574 432.262 194.038 426.852 197.194C421.949 200.011 417.891 206.549 417.159 212.354L415.412 211.339C416.821 204.745 421.442 197.87 426.852 194.714C433.446 190.994 438.8 194.038 438.8 201.646Z" fill="url(#paint13_linear_201_2)"/>
<path fill-rule="evenodd" clip-rule="evenodd" d="M397.377 200.011C395.518 201.082 395.518 202.773 397.377 203.844C399.181 204.915 402.168 204.915 403.971 203.844C405.831 202.773 405.831 201.082 403.971 200.011C402.168 198.941 399.237 198.941 397.377 200.011Z" fill="#B4B5B5"/>
<path fill-rule="evenodd" clip-rule="evenodd" d="M422.344 192.121C422.344 195.052 421.555 198.208 420.202 201.195L418.68 200.293C419.639 197.983 420.202 195.559 420.202 193.305C420.202 187.049 415.806 184.513 410.396 187.669C405.493 190.487 401.435 197.025 400.703 202.829L398.955 201.815C400.364 195.221 404.986 188.346 410.396 185.19C417.046 181.47 422.344 184.57 422.344 192.121Z" fill="url(#paint14_linear_201_2)"/>
<path fill-rule="evenodd" clip-rule="evenodd" d="M380.978 190.487C379.118 191.558 379.118 193.249 380.978 194.319C382.781 195.39 385.768 195.39 387.571 194.319C389.431 193.249 389.431 191.558 387.571 190.487C385.768 189.473 382.781 189.473 380.978 190.487Z" fill="#B4B5B5"/>
<path fill-rule="evenodd" clip-rule="evenodd" d="M405.887 182.654C405.887 185.584 405.098 188.74 403.746 191.727L402.224 190.825C403.182 188.515 403.746 186.091 403.746 183.837C403.746 177.581 399.35 175.045 393.94 178.201C389.037 181.019 384.979 187.557 384.246 193.361L382.499 192.347C383.908 185.753 388.529 178.878 393.94 175.722C400.59 172.002 405.887 175.045 405.887 182.654Z" fill="url(#paint15_linear_201_2)"/>
<path fill-rule="evenodd" clip-rule="evenodd" d="M582.511 324.504L365.761 199.335L363.676 200.519L580.482 325.688L582.511 324.504Z" fill="url(#paint16_linear_201_2)"/>
<path fill-rule="evenodd" clip-rule="evenodd" d="M567.125 333.409L350.319 208.24L348.29 209.423L565.096 334.592L567.125 333.409Z" fill="url(#paint17_linear_201_2)"/>
<path fill-rule="evenodd" clip-rule="evenodd" d="M551.74 342.313L334.934 217.144L332.905 218.328L549.654 343.497L551.74 342.313Z" fill="url(#paint18_linear_201_2)"/>
<path fill-rule="evenodd" clip-rule="evenodd" d="M536.298 351.218L319.548 226.048L317.463 227.232L534.269 352.401L536.298 351.218Z" fill="url(#paint19_linear_201_2)"/>
<path fill-rule="evenodd" clip-rule="evenodd" d="M520.912 360.066L304.106 234.953L302.078 236.136L518.883 361.306L520.912 360.066Z" fill="url(#paint20_linear_201_2)"/>
<path fill-rule="evenodd" clip-rule="evenodd" d="M505.527 368.97L288.721 243.801L286.692 244.985L503.442 370.154L505.527 368.97Z" fill="url(#paint21_linear_201_2)"/>
<path fill-rule="evenodd" clip-rule="evenodd" d="M490.141 377.875L273.335 252.705L271.25 253.889L488.056 379.058L490.141 377.875Z" fill="url(#paint22_linear_201_2)"/>
<path fill-rule="evenodd" clip-rule="evenodd" d="M474.7 386.779L257.95 261.61L255.865 262.793L472.671 387.963L474.7 386.779Z" fill="url(#paint23_linear_201_2)"/>
<path fill-rule="evenodd" clip-rule="evenodd" d="M459.314 395.683L242.508 270.514L240.479 271.698L457.285 396.867L459.314 395.683Z" fill="url(#paint24_linear_201_2)"/>
<path fill-rule="evenodd" clip-rule="evenodd" d="M443.928 404.532L227.123 279.419L225.094 280.602L441.843 405.715L443.928 404.532Z" fill="url(#paint25_linear_201_2)"/>
<path fill-rule="evenodd" clip-rule="evenodd" d="M428.487 413.436L211.737 288.267L209.652 289.45L426.458 414.62L428.487 413.436Z" fill="url(#paint26_linear_201_2)"/>
<path fill-rule="evenodd" clip-rule="evenodd" d="M413.101 422.34L196.295 297.171L194.266 298.355L411.072 423.524L413.101 422.34Z" fill="#DAD5D1"/>
<path fill-rule="evenodd" clip-rule="evenodd" d="M397.716 431.245L180.91 306.076L178.881 307.259L395.63 432.428L397.716 431.245Z" fill="url(#paint27_linear_201_2)"/>
<path fill-rule="evenodd" clip-rule="evenodd" d="M382.33 440.149L165.524 314.98L163.439 316.164L380.245 441.333L382.33 440.149Z" fill="#DAD5D1"/>
<path fill-rule="evenodd" clip-rule="evenodd" d="M366.888 448.997L150.139 323.828L148.053 325.012L364.859 450.181L366.888 448.997Z" fill="url(#paint28_linear_201_2)"/>
<path fill-rule="evenodd" clip-rule="evenodd" d="M351.503 457.902L134.697 332.733L132.668 333.916L349.474 459.085L351.503 457.902Z" fill="url(#paint29_linear_201_2)"/>
<path fill-rule="evenodd" clip-rule="evenodd" d="M336.117 466.806L119.311 341.637L117.282 342.82L334.032 467.99L336.117 466.806Z" fill="url(#paint30_linear_201_2)"/>
<path fill-rule="evenodd" clip-rule="evenodd" d="M320.675 475.711L103.926 350.541L101.841 351.725L318.647 476.894L320.675 475.711Z" fill="url(#paint31_linear_201_2)"/>
<path fill-rule="evenodd" clip-rule="evenodd" d="M305.29 484.559L88.4839 359.446L86.4551 360.629L303.261 485.799L305.29 484.559Z" fill="url(#paint32_linear_201_2)"/>
<path fill-rule="evenodd" clip-rule="evenodd" d="M289.904 493.463L73.0984 368.294L71.0696 369.477L287.819 494.647L289.904 493.463Z" fill="url(#paint33_linear_201_2)"/>
<path d="M458.299 223.625L430.685 175.722L432.488 174.707L459.145 220.92L488.281 207.282L489.183 209.141L458.299 223.625Z" fill="url(#paint34_linear_201_2)"/>
<path fill-rule="evenodd" clip-rule="evenodd" d="M462.639 42.2115V273.896V273.952C462.639 274.628 461.512 275.192 460.103 275.192C458.694 275.192 457.567 274.685 457.567 274.008V273.952V42.2679L462.639 42.2115Z" fill="#808284"/>
<path fill-rule="evenodd" clip-rule="evenodd" d="M460.159 275.192C458.807 275.192 457.68 274.685 457.623 274.065V42.2678H460.159V275.192Z" fill="#929497"/>
<path fill-rule="evenodd" clip-rule="evenodd" d="M460.159 41.3098C461.568 41.3098 462.695 41.7607 462.695 42.3806C462.695 43.0005 461.568 43.4514 460.159 43.5077C458.75 43.5077 457.623 43.0569 457.623 42.437C457.623 41.817 458.75 41.3098 460.159 41.3098Z" fill="#6D6E70"/>
<path fill-rule="evenodd" clip-rule="evenodd" d="M462.639 42.2115V273.896V273.952C462.639 274.628 461.512 275.192 460.103 275.192C458.694 275.192 457.567 274.685 457.567 274.008V273.952V42.2679L462.639 42.2115Z" fill="url(#paint35_linear_201_2)"/>
<path fill-rule="evenodd" clip-rule="evenodd" d="M460.159 275.192C458.75 275.192 457.623 274.685 457.623 274.008V273.952V42.2678H460.159V275.192Z" fill="url(#paint36_linear_201_2)"/>
<path fill-rule="evenodd" clip-rule="evenodd" d="M460.159 41.3098C461.568 41.3098 462.695 41.7607 462.695 42.3806C462.695 43.0005 461.568 43.5077 460.159 43.5077C458.75 43.5077 457.623 43.0569 457.623 42.437C457.623 41.817 458.75 41.3098 460.159 41.3098Z" fill="url(#paint37_linear_201_2)"/>
<path d="M373.313 139.484L575.184 256.256C574.395 255.805 573.268 255.861 572.085 256.538L370.157 139.766C371.397 139.089 372.524 139.033 373.313 139.484Z" fill="url(#paint38_linear_201_2)"/>
<path d="M568.985 266.964L367.057 150.192C366.268 149.741 365.761 148.783 365.761 147.374C365.761 144.556 367.734 141.175 370.157 139.766L572.028 256.538C569.605 257.947 567.632 261.328 567.632 264.146C567.689 265.555 568.196 266.513 568.985 266.964Z" fill="url(#paint39_linear_201_2)"/>
<path d="M572.085 256.538C574.508 255.129 576.48 256.256 576.48 259.074C576.48 261.835 574.508 265.273 572.085 266.682C569.661 268.091 567.689 266.964 567.689 264.146C567.689 261.385 569.605 257.947 572.085 256.538Z" fill="url(#paint40_linear_201_2)"/>
<path fill-rule="evenodd" clip-rule="evenodd" d="M376.187 146.867V7.55188L566.111 117.223L566.167 256.538L376.187 146.867Z" fill="url(#paint41_linear_201_2)"/>
<path fill-rule="evenodd" clip-rule="evenodd" d="M379.738 13.6948L561.433 119.703V248.31L379.738 144.838V13.6948Z" fill="white"/>
<path d="M368.354 3.04329L572.085 120.661V117.223L368.354 0V3.04329Z" fill="url(#paint42_linear_201_2)"/>
<path d="M571.521 120.153L459.596 46.382L370.495 4.50859L371.397 2.6488L460.554 44.5785L572.648 118.406L571.521 120.153Z" fill="url(#paint43_linear_201_2)"/>
<path d="M458.638 299.876L456.552 299.82L457.792 249.211L431.135 272.938L429.783 271.416L459.99 244.534L458.638 299.876Z" fill="url(#paint44_linear_201_2)"/>
<path d="M483.998 272.938L458.187 247.633L459.596 246.112L485.464 271.472L483.998 272.938Z" fill="url(#paint45_linear_201_2)"/>
<path fill-rule="evenodd" clip-rule="evenodd" d="M389.262 381.425L439.364 396.191C407.578 432.597 330.763 447.081 267.812 428.483C255.245 424.764 245.439 420.65 235.407 414.901C185.362 386.046 185.136 339.214 234.787 310.302C284.494 281.391 365.31 281.448 415.355 310.302C455.369 333.409 464.724 367.054 439.307 396.134L389.262 381.425Z" fill="url(#paint46_linear_201_2)"/>
<path fill-rule="evenodd" clip-rule="evenodd" d="M303.092 303.878L230.673 345.976L230.56 399.572L302.979 357.473L375.398 315.375L375.567 261.779L303.092 303.878Z" fill="url(#paint47_linear_201_2)"/>
<path fill-rule="evenodd" clip-rule="evenodd" d="M209.934 328.844C208.525 327.097 207.228 325.237 206.158 323.434C204.523 320.672 203.171 317.911 202.269 315.036C201.029 311.261 200.409 307.428 200.409 303.596L200.24 357.192C200.184 372.521 210.328 387.906 230.56 399.572L230.729 345.976C221.825 340.848 214.893 335.043 209.934 328.844Z" fill="url(#paint48_linear_201_2)"/>
<path fill-rule="evenodd" clip-rule="evenodd" d="M429.557 384.468V384.299L429.726 330.873L441.111 302.525V356.008C441.449 365.532 437.729 375.169 429.783 384.299C429.67 384.356 429.614 384.412 429.557 384.468Z" fill="url(#paint49_linear_201_2)"/>
<path fill-rule="evenodd" clip-rule="evenodd" d="M410.396 261.779C442.576 280.377 450.128 307.485 429.67 330.873L337.977 303.878L410.396 261.779Z" fill="url(#paint50_linear_201_2)"/>
<path fill-rule="evenodd" clip-rule="evenodd" d="M429.67 330.873L429.501 384.525L337.808 357.473L337.977 303.878L429.67 330.873Z" fill="url(#paint51_linear_201_2)"/>
<path fill-rule="evenodd" clip-rule="evenodd" d="M399.012 347.273C398.73 347.554 398.448 347.836 398.166 348.118C397.603 348.682 397.039 349.189 396.476 349.752C395.969 350.203 395.405 350.654 394.898 351.161C394.447 351.556 393.996 351.95 393.545 352.288C392.982 352.739 392.418 353.19 391.798 353.641C391.347 353.979 390.896 354.374 390.389 354.712C389.769 355.163 389.149 355.614 388.529 356.008C388.079 356.346 387.571 356.684 387.12 357.022C386.444 357.473 385.768 357.868 385.035 358.319C384.528 358.6 384.077 358.939 383.57 359.22C383.401 359.333 383.175 359.446 383.006 359.559C382.105 360.066 381.203 360.573 380.301 361.08C379.963 361.249 379.625 361.475 379.287 361.644C378.441 362.095 377.596 362.545 376.751 362.94C376.469 363.109 376.131 363.222 375.849 363.391C374.722 363.954 373.538 364.462 372.355 365.025C372.129 365.138 371.904 365.194 371.735 365.307C370.721 365.758 369.763 366.152 368.748 366.547C368.354 366.716 368.015 366.829 367.621 366.998C366.663 367.392 365.761 367.73 364.803 368.068C364.465 368.181 364.127 368.294 363.789 368.407C362.549 368.857 361.253 369.252 360.013 369.703C358.491 370.21 356.969 370.661 355.448 371.112L355.166 371.168C353.701 371.563 352.235 371.957 350.77 372.352C350.263 372.464 349.699 372.577 349.136 372.746C348.065 372.972 347.051 373.253 345.98 373.479C345.36 373.591 344.684 373.761 344.064 373.873C343.106 374.042 342.091 374.268 341.133 374.437C340.626 374.55 340.062 374.606 339.555 374.719C338.033 375 336.512 375.226 334.99 375.451C334.427 375.508 333.863 375.62 333.299 375.677C331.327 375.958 329.354 376.184 327.326 376.409C327.156 376.409 326.931 376.466 326.762 376.466C325.184 376.635 323.606 376.747 322.028 376.86C321.408 376.917 320.844 376.917 320.225 376.973C319.041 377.029 317.858 377.086 316.674 377.142C315.941 377.198 315.152 377.198 314.42 377.198C313.518 377.198 312.56 377.255 311.658 377.255C310.869 377.255 310.08 377.255 309.291 377.255C308.39 377.255 307.431 377.255 306.53 377.255C305.741 377.255 304.895 377.198 304.106 377.198C303.261 377.142 302.416 377.142 301.627 377.086C300.781 377.029 299.936 376.973 299.147 376.973C298.302 376.917 297.456 376.86 296.667 376.804C295.822 376.747 294.977 376.691 294.131 376.578C293.286 376.522 292.497 376.409 291.651 376.353C290.806 376.24 289.961 376.184 289.172 376.071C288.326 375.958 287.537 375.846 286.692 375.733C285.903 375.62 285.058 375.508 284.269 375.395C283.367 375.282 282.522 375.113 281.62 375C280.831 374.888 280.042 374.719 279.253 374.606C278.408 374.437 277.506 374.268 276.66 374.099C275.928 373.93 275.139 373.817 274.406 373.648C273.392 373.422 272.321 373.197 271.307 372.972C270.574 372.802 269.898 372.633 269.165 372.464C268.094 372.183 267.08 371.901 266.009 371.619C265.107 371.394 264.206 371.112 263.304 370.886C262.12 370.548 260.993 370.21 259.922 369.816C259.584 369.703 259.246 369.59 258.908 369.477C258.175 369.252 257.386 368.97 256.654 368.745C256.259 368.632 255.865 368.463 255.527 368.35C254.85 368.125 254.174 367.843 253.498 367.618C253.16 367.505 252.765 367.336 252.427 367.223C251.976 367.054 251.469 366.829 251.018 366.66C250.229 366.378 249.496 366.04 248.764 365.701C248.313 365.532 247.862 365.307 247.411 365.138C246.678 364.8 245.946 364.462 245.213 364.123C244.819 363.898 244.368 363.729 243.973 363.504C243.184 363.109 242.452 362.715 241.663 362.32C241.325 362.151 240.93 361.982 240.592 361.756C239.465 361.193 238.394 360.573 237.267 359.897L237.098 413.492C238.225 414.112 239.296 414.732 240.423 415.352C240.761 415.521 241.155 415.747 241.494 415.916C242.226 416.31 243.015 416.705 243.804 417.099C244.199 417.325 244.65 417.494 245.044 417.719C245.777 418.057 246.509 418.395 247.242 418.734C247.693 418.903 248.144 419.128 248.595 419.297C249.327 419.635 250.116 419.917 250.849 420.255C251.131 420.368 251.412 420.481 251.694 420.593C251.863 420.65 252.032 420.706 252.201 420.819C252.54 420.931 252.934 421.101 253.272 421.213C253.949 421.495 254.625 421.72 255.301 421.946C255.696 422.059 256.09 422.228 256.428 422.34C257.161 422.622 257.894 422.848 258.683 423.073C259.021 423.186 259.359 423.298 259.697 423.411C260.824 423.749 261.951 424.087 263.078 424.482C263.473 424.595 263.924 424.707 264.318 424.82C264.769 424.933 265.276 425.046 265.727 425.215C266.798 425.496 267.812 425.778 268.883 426.06C269.616 426.229 270.292 426.398 271.025 426.567C272.039 426.793 273.054 427.018 274.124 427.243C274.519 427.3 274.857 427.413 275.252 427.469C275.646 427.525 276.041 427.638 276.379 427.694C277.224 427.863 278.126 428.032 278.971 428.202C279.76 428.371 280.549 428.483 281.338 428.596C282.24 428.765 283.085 428.878 283.987 428.991C284.438 429.047 284.889 429.16 285.396 429.216C285.734 429.272 286.072 429.329 286.41 429.329C287.256 429.441 288.045 429.554 288.89 429.667C289.735 429.78 290.581 429.836 291.37 429.949C292.215 430.061 293.004 430.118 293.849 430.174C294.357 430.23 294.807 430.287 295.315 430.287C295.653 430.343 296.047 430.343 296.385 430.343C297.231 430.399 298.076 430.456 298.865 430.512C299.711 430.569 300.556 430.625 301.345 430.625C302.19 430.681 303.036 430.681 303.825 430.738C304.332 430.738 304.783 430.794 305.29 430.794C305.628 430.794 305.966 430.794 306.304 430.794C307.206 430.794 308.164 430.794 309.066 430.794C309.855 430.794 310.644 430.794 311.433 430.794C312.335 430.794 313.293 430.738 314.194 430.738C314.702 430.738 315.209 430.738 315.772 430.681C315.998 430.681 316.28 430.681 316.505 430.625C317.688 430.569 318.872 430.512 320.055 430.456C320.675 430.399 321.239 430.399 321.859 430.343C323.437 430.23 325.015 430.118 326.593 429.949C326.762 429.949 326.931 429.949 327.1 429.892H327.156C329.185 429.667 331.158 429.441 333.13 429.16C333.694 429.103 334.257 428.991 334.821 428.934C336.343 428.709 337.864 428.483 339.386 428.202C339.724 428.145 340.062 428.089 340.4 428.032C340.569 427.976 340.795 427.976 340.964 427.92C341.922 427.751 342.936 427.525 343.895 427.356C344.514 427.243 345.191 427.074 345.811 426.962C346.881 426.736 347.896 426.454 348.967 426.229C349.53 426.116 350.037 426.004 350.601 425.835C352.066 425.44 353.588 425.046 355.053 424.651L355.279 424.595C356.8 424.144 358.322 423.693 359.844 423.186L360.013 423.129C361.253 422.735 362.436 422.34 363.62 421.89C363.958 421.777 364.296 421.664 364.634 421.551C365.592 421.213 366.55 420.875 367.452 420.481C367.846 420.312 368.241 420.199 368.579 420.03C369.593 419.635 370.608 419.184 371.566 418.79C371.791 418.677 372.017 418.621 372.186 418.508C373.369 418.001 374.553 417.437 375.68 416.874C375.962 416.705 376.3 416.592 376.582 416.423C377.427 415.972 378.272 415.578 379.118 415.127C379.456 414.958 379.794 414.789 380.132 414.563C381.034 414.056 381.936 413.549 382.837 413.041C383.006 412.929 383.232 412.816 383.401 412.703L383.57 412.591C384.021 412.309 384.415 412.027 384.866 411.745C385.542 411.294 386.275 410.9 386.951 410.449C387.459 410.111 387.909 409.773 388.36 409.435C388.98 408.984 389.6 408.589 390.22 408.138C390.727 407.8 391.178 407.406 391.629 407.068C392.193 406.617 392.813 406.166 393.376 405.715C393.827 405.321 394.278 404.926 394.729 404.588C395.292 404.137 395.799 403.686 396.307 403.179L396.588 402.954C397.096 402.503 397.547 402.052 397.997 401.601C398.279 401.319 398.561 401.037 398.843 400.756C399.688 399.91 400.477 399.065 401.21 398.163L401.379 344.568C400.59 345.582 399.801 346.484 399.012 347.273Z" fill="url(#paint52_linear_201_2)"/>
<path fill-rule="evenodd" clip-rule="evenodd" d="M401.379 344.737C375.793 374.042 313.969 385.652 263.304 370.774C253.16 367.787 245.27 364.462 237.21 359.84L309.629 317.742L401.379 344.737Z" fill="url(#paint53_linear_201_2)"/>
<path opacity="0.1" fill-rule="evenodd" clip-rule="evenodd" d="M196.521 419.917C194.999 418.395 193.139 416.986 190.941 415.69C181.868 410.449 169.075 408.702 157.521 410.393C151.604 411.238 146.025 413.041 141.403 415.69C130.921 421.72 128.498 430.681 134.021 438.064C135.711 440.318 138.191 442.46 141.403 444.32C155.098 452.21 177.303 452.21 190.998 444.32C194.21 442.46 196.69 440.318 198.437 438.008C202.664 432.203 202.044 425.496 196.521 419.917Z" fill="#231916"/>
<path fill-rule="evenodd" clip-rule="evenodd" d="M74.0565 339.045L35.79 316.896L68.1954 298.186L106.462 320.278L68.1954 298.186L100.657 279.475L120.495 268.035L158.761 290.127L120.495 268.035L152.956 249.268L172.794 237.827L211.061 259.919L172.794 237.827L205.2 219.117L225.094 207.62L263.36 229.712L225.094 207.62L241.324 198.265L279.591 220.357L263.36 229.712L230.955 248.422L211.061 259.919L178.655 278.63L158.761 290.127L126.356 308.837L106.462 320.278L74.0565 339.045Z" fill="url(#paint54_linear_201_2)"/>
<path fill-rule="evenodd" clip-rule="evenodd" d="M235.069 53.9901L202.607 35.2795L235.069 16.569L267.474 35.2795L235.069 53.9901Z" fill="url(#paint55_linear_201_2)"/>
<path fill-rule="evenodd" clip-rule="evenodd" d="M235.069 239.292L267.474 220.582V35.2795L235.069 53.9901V239.292Z" fill="url(#paint56_linear_201_2)"/>
<path fill-rule="evenodd" clip-rule="evenodd" d="M235.069 239.292L202.607 220.582V35.2795L235.069 53.9901V239.292Z" fill="url(#paint57_linear_201_2)"/>
<path fill-rule="evenodd" clip-rule="evenodd" d="M202.607 104.092L170.202 85.3811L202.607 66.6705L235.069 85.3811L202.607 104.092Z" fill="url(#paint58_linear_201_2)"/>
<path fill-rule="evenodd" clip-rule="evenodd" d="M202.607 258.059L235.069 239.292V85.3811L202.607 104.092V258.059Z" fill="url(#paint59_linear_201_2)"/>
<path fill-rule="evenodd" clip-rule="evenodd" d="M202.607 258.059L170.202 239.292V85.3811L202.607 104.092V258.059Z" fill="url(#paint60_linear_201_2)"/>
<path fill-rule="evenodd" clip-rule="evenodd" d="M170.202 168.79L137.74 150.079L170.202 131.369L202.607 150.079L170.202 168.79Z" fill="url(#paint61_linear_201_2)"/>
<path fill-rule="evenodd" clip-rule="evenodd" d="M170.202 276.77L202.607 258.059V150.079L170.202 168.79V276.77Z" fill="url(#paint62_linear_201_2)"/>
<path fill-rule="evenodd" clip-rule="evenodd" d="M170.202 276.77L137.74 258.059V150.079L170.202 168.79V276.77Z" fill="url(#paint63_linear_201_2)"/>
<path fill-rule="evenodd" clip-rule="evenodd" d="M136.275 160.28L103.869 141.569L136.275 122.859L168.737 141.569L136.275 160.28Z" fill="url(#paint64_linear_201_2)"/>
<path fill-rule="evenodd" clip-rule="evenodd" d="M135.26 294.861L167.722 276.15V141.569L135.26 160.28V294.861Z" fill="url(#paint65_linear_201_2)"/>
<path fill-rule="evenodd" clip-rule="evenodd" d="M136.275 294.861L103.869 276.15V141.569L136.275 160.28V294.861Z" fill="url(#paint66_linear_201_2)"/>
<path fill-rule="evenodd" clip-rule="evenodd" d="M105.335 256.538L72.9294 237.827L105.335 219.06L137.74 237.827L105.335 256.538Z" fill="url(#paint67_linear_201_2)"/>
<path fill-rule="evenodd" clip-rule="evenodd" d="M105.335 314.191L137.74 295.48V237.827L105.335 256.538V314.191Z" fill="url(#paint68_linear_201_2)"/>
<path fill-rule="evenodd" clip-rule="evenodd" d="M105.335 313.402L72.9294 294.692V236.982L105.335 255.692V313.402Z" fill="url(#paint69_linear_201_2)"/>
<path fill-rule="evenodd" clip-rule="evenodd" d="M72.9294 301.229L40.4677 282.518L72.9294 263.808L105.335 282.518L72.9294 301.229Z" fill="url(#paint70_linear_201_2)"/>
<path fill-rule="evenodd" clip-rule="evenodd" d="M72.9294 332.902L105.335 314.191V282.518L72.9294 301.229V332.902Z" fill="url(#paint71_linear_201_2)"/>
<path fill-rule="evenodd" clip-rule="evenodd" d="M72.9294 332.902L40.4677 314.191V282.518L72.9294 301.229V332.902Z" fill="url(#paint72_linear_201_2)"/>
<path d="M435.982 103.415L421.498 95.0745L421.329 146.247L435.813 154.588L435.982 103.415Z" fill="url(#paint73_linear_201_2)"/>
<path d="M455.2 127.029L440.716 118.688L440.603 157.405L455.087 165.746L455.2 127.029Z" fill="url(#paint74_linear_201_2)"/>
<path d="M474.53 109.22L460.103 100.879L459.877 168.508L474.361 176.849L474.53 109.22Z" fill="url(#paint75_linear_201_2)"/>
<path d="M493.861 98.7377L479.377 90.3969L479.152 179.61L493.635 188.007L493.861 98.7377Z" fill="url(#paint76_linear_201_2)"/>
<path fill-rule="evenodd" clip-rule="evenodd" d="M168.849 167.663C168.68 167.775 168.511 167.888 168.286 168.001C165.75 169.241 162.312 167.55 161.636 164.901C160.847 161.745 166.37 159.434 168.455 158.42C169.638 157.856 179.332 153.404 179.05 155.377C178.993 155.828 178.486 156.109 178.035 156.335C176.683 156.955 175.387 157.575 174.034 158.195C173.132 158.589 172.174 159.096 171.78 159.942C171.498 160.505 171.498 161.181 171.442 161.858C171.273 163.718 170.484 166.423 168.849 167.663Z" fill="url(#paint77_linear_201_2)"/>
<path fill-rule="evenodd" clip-rule="evenodd" d="M130.864 167.719C141.629 168.17 152.055 164.281 162.086 160.392C164.341 162.816 165.468 166.254 165.017 169.522C159.043 171.551 153.013 173.524 147.039 175.553C143.488 176.736 139.938 177.92 136.275 178.596C132.442 179.328 128.497 179.498 124.552 179.667C120.833 179.836 117.057 179.948 113.337 179.779C106.913 179.441 100.206 176.229 103.137 168.395C103.531 167.268 104.208 166.254 105.166 165.577C107.533 163.943 114.295 165.521 117.057 165.915C121.678 166.535 126.243 167.55 130.864 167.719Z" fill="url(#paint78_linear_201_2)"/>
<path fill-rule="evenodd" clip-rule="evenodd" d="M117.959 292.888C118.804 298.129 116.381 305.005 118.184 307.654C120.664 311.26 124.383 312.5 128.554 312.219C130.357 312.106 131.766 310.81 131.372 308.499C130.639 302.243 128.103 298.186 127.596 292.381L117.959 292.888Z" fill="url(#paint79_linear_201_2)"/>
<path fill-rule="evenodd" clip-rule="evenodd" d="M136.331 280.659H144.616L147.377 281.898C152.618 284.434 156.845 288.041 161.016 291.761C163.664 294.128 160.001 296.72 155.943 296.269C151.604 295.762 148.504 293.226 144.39 291.028C141.347 289.394 138.247 288.943 135.655 287.027L136.331 280.659Z" fill="url(#paint80_linear_201_2)"/>
<path fill-rule="evenodd" clip-rule="evenodd" d="M113.732 217.933C113.732 217.933 133.57 229.148 145.574 241.096C145.574 241.096 150.477 264.033 149.631 281.335C149.631 281.335 145.292 287.534 134.64 285.336L130.695 246.901L98.5719 229.768L95.754 218.948L113.732 217.933Z" fill="url(#paint81_linear_201_2)"/>
<path fill-rule="evenodd" clip-rule="evenodd" d="M95.754 222.892C95.754 222.892 124.834 243.406 127.934 248.14C127.539 248.028 129.399 277.672 130.019 291.141C130.019 291.141 123.031 296.495 115.592 292.493C116.212 292.493 111.816 258.679 110.858 255.241C110.858 255.241 88.5966 245.83 85.0461 241.941C81.4956 238.053 79.5231 227.908 81.2139 224.583L95.754 222.892Z" fill="url(#paint82_linear_201_2)"/>
<path fill-rule="evenodd" clip-rule="evenodd" d="M151.491 186.598L149.293 185.528L132.781 195.334C129.512 197.306 126.807 200.124 125.06 203.506L115.197 222.442L117.395 223.512L151.491 186.598Z" fill="#D5D3D4"/>
<path fill-rule="evenodd" clip-rule="evenodd" d="M89.5547 168.001C86.7369 169.41 84.0881 171.157 82.0592 173.524C78.9596 177.13 77.5506 181.977 77.3252 186.711C76.9307 194.545 78.4524 203.167 79.3541 211.001C79.5231 212.354 80.3685 224.527 81.2139 224.696C81.2139 224.696 99.9808 228.246 114.408 217.989C113.337 208.521 114.465 199.053 114.746 189.585C114.972 182.935 116.212 171.889 110.97 166.817C108.434 164.337 104.715 163.21 101.164 163.661C98.7973 163.943 96.5994 164.901 94.4578 165.859C92.7671 166.479 91.1327 167.212 89.5547 168.001Z" fill="url(#paint83_linear_201_2)"/>
<path fill-rule="evenodd" clip-rule="evenodd" d="M104.433 175.722C104.377 175.102 104.264 174.482 104.151 173.862C100.939 175.496 96.7121 175.834 93.0489 174.651C94.4578 176.736 96.4303 178.709 97.7829 180.512C99.8117 183.217 101.841 185.979 103.869 188.684C102.066 186.26 104.771 178.765 104.433 175.722Z" fill="url(#paint84_linear_201_2)"/>
<path fill-rule="evenodd" clip-rule="evenodd" d="M103.475 164.281L92.9925 161.576C92.7671 165.014 90.6255 169.241 91.9217 172.453C92.2035 173.186 92.6543 173.918 93.1616 174.651C96.8248 175.834 101.052 175.496 104.264 173.862C103.644 170.762 102.742 167.55 103.475 164.281Z" fill="url(#paint85_linear_201_2)"/>
<path fill-rule="evenodd" clip-rule="evenodd" d="M88.8221 161.294C90.0056 163.886 92.9925 165.408 95.1904 167.212C96.2612 168.057 97.332 168.959 98.6846 169.297C100.037 169.635 101.502 169.409 102.911 169.184C103.757 169.015 104.602 168.846 105.278 168.395C106.405 167.606 106.8 166.197 107.138 164.845C107.814 161.97 109.223 156.785 108.322 153.855C108.096 153.179 107.645 152.559 107.42 151.826C107.194 150.981 107.307 150.023 107.476 149.177C109.28 136.722 95.0777 133.51 88.0894 142.189C83.1863 148.106 83.13 151.77 88.8221 161.294Z" fill="url(#paint86_linear_201_2)"/>
<path fill-rule="evenodd" clip-rule="evenodd" d="M88.1458 157.8C87.8076 155.997 87.0186 152.784 89.442 153.686L90.3437 154.193C92.4853 155.32 92.8798 147.036 92.8798 145.852C92.8798 145.401 92.8798 144.838 93.2743 144.556C93.6124 144.274 94.0633 144.387 94.5141 144.443C98.4591 145.176 102.517 145.345 106.518 144.951C106.913 144.894 107.364 144.838 107.645 144.5C107.871 144.218 107.927 143.88 107.927 143.542C107.983 141.456 106.856 139.428 105.278 138.019C103.7 136.666 101.615 135.877 99.5863 135.483C95.6413 134.806 88.1458 135.426 88.1458 140.949C85.2152 141.738 82.7919 144.387 82.341 147.374C82.1156 148.952 82.341 150.586 82.6228 152.221C83.0736 154.588 83.6936 156.955 84.9898 158.983C85.6097 159.885 89.3856 163.943 90.7382 162.478C91.809 161.35 88.3712 158.927 88.1458 157.8Z" fill="url(#paint87_linear_201_2)"/>
<path fill-rule="evenodd" clip-rule="evenodd" d="M151.491 186.599L132.893 197.645C130.977 198.772 129.399 200.462 128.328 202.435L117.339 223.512L137.176 212.128C139.882 210.55 142.023 208.183 143.263 205.365L151.491 186.599Z" fill="#FFF7FA"/>
<path fill-rule="evenodd" clip-rule="evenodd" d="M81.8901 176.68C88.8784 176.961 89.1602 193.53 89.442 197.983C89.6674 201.871 89.3293 205.929 89.8929 209.761C98.0646 211.903 105.898 212.692 114.183 213.255C114.465 213.255 114.803 213.312 115.028 213.481C115.197 213.65 115.31 213.932 115.366 214.157C115.93 216.524 115.817 219.004 115.197 221.315C106.011 221.822 96.7684 221.315 87.5822 220.3C81.6084 219.68 80.8194 217.313 79.185 212.128C78.2269 209.085 77.4943 205.985 76.9871 202.886C75.9163 196.236 75.5218 190.205 76.1981 183.443C76.4799 180.343 78.4524 177.243 81.8901 176.68Z" fill="url(#paint88_linear_201_2)"/>
<path fill-rule="evenodd" clip-rule="evenodd" d="M268.376 100.879C267.587 98.4559 262.909 101.95 263.022 104.092C263.191 106.684 263.811 109.671 266.122 110.854C266.854 107.698 267.587 104.543 268.32 101.443C268.376 101.217 268.432 101.048 268.376 100.879Z" fill="url(#paint89_linear_201_2)"/>
<path fill-rule="evenodd" clip-rule="evenodd" d="M329.805 159.66C331.609 159.716 333.356 159.491 335.103 158.983C337.132 158.363 339.273 157.405 341.302 158.025C340.964 159.152 339.724 159.998 338.541 159.829C339.499 159.772 350.826 161.294 350.376 161.858C348.065 164.619 343.895 165.521 340.457 165.69C336.568 165.859 332.736 165.014 328.96 164.225C328.396 164.112 327.664 163.605 328.002 163.154C327.1 162.703 328.002 162.703 328.058 161.689C328.114 160.73 328.847 159.829 329.805 159.547" fill="url(#paint90_linear_201_2)"/>
<path fill-rule="evenodd" clip-rule="evenodd" d="M232.984 154.024C233.096 156.053 233.209 158.025 233.435 160.054C230.166 161.294 226.164 162.252 222.839 160.9C220.078 159.773 217.824 157.687 215.738 155.489C215.175 154.926 214.668 153.855 215.344 153.404C215.569 153.235 215.907 153.235 216.246 153.235C218.951 153.404 223.741 154.475 226.108 153.461C225.432 152.615 224.417 152.446 223.459 151.826C223.234 151.657 222.839 151.263 223.29 151.094C224.643 150.699 226.277 151.319 227.573 151.713C228.475 151.995 229.377 152.333 230.279 152.728C230.729 152.953 231.18 153.179 231.631 153.404C231.913 153.573 232.364 153.968 232.646 153.968C232.984 154.08 232.589 154.08 232.984 154.024Z" fill="url(#paint91_linear_201_2)"/>
<path fill-rule="evenodd" clip-rule="evenodd" d="M264.149 119.759C257.781 118.801 252.934 139.766 251.863 148.952C244.762 150.079 237.887 151.488 231.237 153.122C233.209 155.095 233.491 157.631 232.42 160.505C240.536 159.603 248.651 158.363 256.654 156.842C262.289 149.403 265.896 140.273 267.981 126.916C268.32 124.38 266.291 120.548 264.149 119.759Z" fill="url(#paint92_linear_201_2)"/>
<path fill-rule="evenodd" clip-rule="evenodd" d="M292.497 273.727C291.764 278.404 293.906 284.491 292.328 286.801C290.13 290.014 286.861 291.085 283.142 290.859C281.564 290.747 280.324 289.619 280.662 287.534C281.282 282.011 283.536 278.404 284.043 273.276L292.497 273.727Z" fill="url(#paint93_linear_201_2)"/>
<path fill-rule="evenodd" clip-rule="evenodd" d="M276.21 263.751H268.883L266.46 264.878C261.839 267.133 258.063 270.345 254.399 273.614C252.032 275.699 255.301 278.01 258.908 277.615C262.74 277.164 265.502 274.91 269.165 272.938C271.87 271.472 274.632 271.078 276.886 269.387L276.21 263.751Z" fill="url(#paint94_linear_201_2)"/>
<path fill-rule="evenodd" clip-rule="evenodd" d="M276.379 186.542C270.574 184.175 264.206 182.315 258.626 179.554C258.401 186.486 257.555 193.643 258.795 200.519C260.091 207.563 261.444 214.608 262.628 221.653C265.051 235.516 265.276 249.662 265.784 263.751C269.447 265.442 273.166 265.329 276.999 263.751C276.717 250.226 278.069 236.925 275.815 223.569C273.786 211.17 276.83 198.659 276.379 186.542Z" fill="url(#paint95_linear_201_2)"/>
<path fill-rule="evenodd" clip-rule="evenodd" d="M293.117 197.025L274.237 189.247L271.701 188.12C273.786 202.717 276.83 217.426 279.366 232.079C281.789 245.943 282.014 260.088 282.522 274.178C286.185 275.868 289.904 275.756 293.737 274.178C293.455 260.652 294.807 247.352 292.553 233.995C290.524 221.596 293.568 209.141 293.117 197.025Z" fill="url(#paint96_linear_201_2)"/>
<path fill-rule="evenodd" clip-rule="evenodd" d="M283.761 127.142C283.367 127.085 271.363 122.971 271.363 122.971L265.614 123.591C265.614 123.591 261.726 132.045 261.726 132.608C261.726 133.172 258.908 148.895 258.908 148.895L262.064 183.781L274.293 189.247L280.098 186.993L279.253 156.278L283.761 127.142Z" fill="url(#paint97_linear_201_2)"/>
<path fill-rule="evenodd" clip-rule="evenodd" d="M282.409 123.478L266.46 120.041C257.668 118.35 255.696 131.876 256.372 138.751C258.006 155.038 256.259 175.496 256.034 189.754C258.288 190.882 260.204 190.938 261.5 189.416C263.924 168.564 259.697 148.332 268.714 124.493C276.886 131.481 273.054 124.718 282.409 123.478Z" fill="url(#paint98_linear_201_2)"/>
<path fill-rule="evenodd" clip-rule="evenodd" d="M280.775 116.377C280.775 116.377 281.169 120.661 282.409 123.478C283.029 130.918 269.898 136.328 268.151 128.832C268.151 128.832 269.39 121.45 268.714 118.914L280.775 116.377Z" fill="url(#paint99_linear_201_2)"/>
<path fill-rule="evenodd" clip-rule="evenodd" d="M282.634 113.56C281.451 117.279 278.182 119.646 275.082 121.788C274.801 121.957 274.519 122.182 274.181 122.295C273.843 122.351 273.504 122.351 273.223 122.295C271.87 122.126 270.461 122.013 269.109 121.844C268.376 121.788 267.587 121.675 267.08 121.168C266.685 120.83 266.516 120.322 266.347 119.815C265.614 117.843 264.882 115.87 264.769 113.785C264.713 112.827 264.769 111.813 264.656 110.854C264.544 109.671 264.149 108.544 263.98 107.36C263.755 105.331 264.938 101.837 265.727 99.9212C268.094 94.2854 275.308 91.8621 281.394 97.7232C285.903 102.063 286.354 105.106 282.634 113.56Z" fill="url(#paint100_linear_201_2)"/>
<path fill-rule="evenodd" clip-rule="evenodd" d="M281.845 115.307C281.845 115.307 281.056 115.588 280.718 114.743C280.38 113.898 282.747 112.094 282.803 110.573C282.86 109.051 283.198 106.346 281.282 107.304L280.549 107.811C279.929 108.262 279.084 107.642 279.309 106.909C279.647 105.782 279.816 104.542 279.478 103.697C278.802 102.063 272.377 104.035 271.081 104.092C267.305 104.261 260.035 102.626 262.909 97.1597C264.769 93.6092 268.432 91.524 272.265 91.693C273.73 91.7494 275.195 91.8621 276.66 92.0312C278.52 92.2566 280.38 92.5384 281.958 93.4965C283.536 94.4545 284.72 96.3143 284.381 98.1177C285.396 97.8923 286.467 98.6813 286.917 99.6394C288.777 103.81 286.523 113.56 281.845 115.307Z" fill="url(#paint101_linear_201_2)"/>
<path fill-rule="evenodd" clip-rule="evenodd" d="M282.409 123.479L292.948 129.96L289.059 171.495C287.932 183.443 295.033 184.682 295.596 195.447C288.552 200.068 281.62 203.618 275.082 198.603C272.659 174.2 271.757 160.449 272.941 153.686C274.97 142.696 279.309 133.51 282.409 123.479Z" fill="url(#paint102_linear_201_2)"/>
<path fill-rule="evenodd" clip-rule="evenodd" d="M290.919 130.016C294.131 130.072 296.385 132.721 298.358 135.313C300.95 138.751 303.261 142.358 305.29 146.19C306.417 148.388 307.544 150.699 309.404 152.277C311.658 154.137 314.701 154.757 317.576 155.264C322.253 156.109 326.987 156.955 331.665 157.8C331.327 160.561 330.763 163.323 329.974 166.028C321.633 164.676 312.616 166.141 305.008 162.365C299.823 159.772 296.104 155.038 292.553 150.417C290.806 148.163 288.439 146.979 287.312 144.331C285.959 141.118 285.79 137.286 286.467 133.905C286.748 132.383 287.481 130.692 288.946 130.298C289.679 130.072 290.299 130.016 290.919 130.016Z" fill="url(#paint103_linear_201_2)"/>
<path fill-rule="evenodd" clip-rule="evenodd" d="M375.567 261.779L303.148 303.878L230.729 345.976C190.49 322.757 190.265 285.054 230.222 261.779C270.236 238.56 335.272 238.56 375.567 261.779Z" fill="url(#paint104_linear_201_2)"/>
<path fill-rule="evenodd" clip-rule="evenodd" d="M120.889 210.663C120.438 211.903 119.819 213.086 119.086 214.157C122.805 213.763 124.834 210.381 128.441 209.31C128.667 209.592 128.779 209.987 128.667 210.381C129.456 210.325 130.301 210.381 131.034 210.607C129.794 213.086 128.047 215.341 125.961 217.144C125.229 217.764 124.44 218.328 123.594 218.666C121.397 219.398 115.31 220.695 114.521 217.877C113.394 213.537 119.931 213.199 120.889 210.663Z" fill="url(#paint105_linear_201_2)"/>
<path fill-rule="evenodd" clip-rule="evenodd" d="M190.659 304.667C187.729 305.118 185.362 308.048 182.488 309.006C183.615 307.315 184.798 305.568 185.925 303.878C184.573 303.596 183.333 304.61 182.488 305.625C181.191 307.146 180.233 308.95 179.67 310.922C179.501 311.542 179.332 312.275 179.501 312.895C180.064 314.867 183.108 315.769 184.855 316.051C188.969 316.727 193.928 311.768 194.154 307.146C194.379 302.525 193.534 304.272 190.659 304.667Z" fill="url(#paint106_linear_201_2)"/>
<path fill-rule="evenodd" clip-rule="evenodd" d="M146.983 425.947L157.127 414.563C161.185 413.38 165.411 413.154 164.904 416.874C164.397 420.199 159.156 421.664 155.493 424.876L152.168 427.863C149.744 430.005 146.645 428.145 146.983 425.947Z" fill="url(#paint107_linear_201_2)"/>
<path fill-rule="evenodd" clip-rule="evenodd" d="M195.055 432.767C196.239 436.768 194.604 437.726 193.196 438.909C192.237 439.755 191.11 440.544 189.814 440.882C186.207 441.84 182.262 441.84 178.205 441.615C177.19 441.558 176.796 442.798 175.838 442.911C173.471 443.136 170.484 443.193 168.286 442.122V440.375C170.484 441.445 173.471 441.389 175.838 441.164C181.417 440.656 188.969 441.276 193.196 437.67C194.154 436.881 194.83 433.894 195.055 432.767Z" fill="url(#paint108_linear_201_2)"/>
<path fill-rule="evenodd" clip-rule="evenodd" d="M189.476 320.278C191.505 319.038 194.21 316.22 195.112 314.022C195.901 312.106 196.69 310.133 196.746 308.048C196.859 306.188 196.408 304.329 195.45 302.751C195.393 302.638 195.281 302.469 195.168 302.412C194.717 302.131 194.154 302.638 193.872 303.145C192.181 305.794 190.716 308.781 188.574 311.148C188.687 310.246 189.081 309.175 189.476 308.33C190.152 306.921 188.969 306.977 188.969 306.977C188.18 307.485 185.869 311.204 185.587 312.557C185.249 313.909 184.46 317.46 184.46 317.46L184.911 317.854C184.573 318.362 184.347 318.643 184.347 318.643C184.291 318.587 188.067 321.123 189.476 320.278Z" fill="url(#paint109_linear_201_2)"/>
<path fill-rule="evenodd" clip-rule="evenodd" d="M147.039 287.59C147.039 287.59 132.555 292.888 143.827 307.823L147.039 287.59Z" fill="url(#paint110_linear_201_2)"/>
<path fill-rule="evenodd" clip-rule="evenodd" d="M156.169 258.228C159.269 257.721 163.552 257.609 166.539 258.51C171.611 260.032 174.372 263.244 175.612 268.035C176.852 272.881 177.19 280.94 174.429 285.449C172.682 288.267 168.849 287.76 166.088 287.027C162.763 286.125 158.367 284.716 155.662 282.631C151.829 279.757 149.857 273.445 149.631 268.88C149.35 264.991 151.379 259.017 156.169 258.228Z" fill="url(#paint111_linear_201_2)"/>
<path fill-rule="evenodd" clip-rule="evenodd" d="M156.113 281.617C156.507 282.067 156.958 282.462 157.409 282.8C160.17 284.885 162.763 286.125 166.088 287.027C166.595 287.14 167.215 287.309 167.778 287.421L167.497 290.465C163.946 291.423 160.508 289.957 158.085 289.281C156.282 288.774 153.407 288.323 153.407 286.407L156.113 281.617Z" fill="url(#paint112_linear_201_2)"/>
<path fill-rule="evenodd" clip-rule="evenodd" d="M177.979 258.172C177.979 258.172 173.978 259.975 167.891 257.496C164.792 256.2 156.169 256.538 153.746 259.186C150.702 261.215 149.406 265.724 149.575 268.88C149.801 273.445 151.829 279.757 155.605 282.631C157.691 284.209 157.803 284.378 160.621 285.28C161.41 284.885 165.524 281.673 165.524 281.673C163.946 280.771 162.706 275.474 164.397 274.516C166.088 273.614 167.215 276.883 167.215 276.883C168.173 276.544 169.695 275.417 168.849 273.445C168.004 271.472 168.849 269.443 168.849 269.443C171.836 269.5 174.316 267.809 175.274 267.246C175.33 267.302 179.388 264.484 177.979 258.172Z" fill="url(#paint113_linear_201_2)"/>
<path fill-rule="evenodd" clip-rule="evenodd" d="M177.641 430.118C177.641 430.118 179.332 432.936 181.811 431.358C182.6 430.85 190.885 430.625 192.407 431.019C193.139 431.189 194.661 431.696 194.943 432.428C195.788 434.514 194.717 436.317 193.196 437.67C189.025 441.276 181.417 440.657 175.838 441.164C173.414 441.389 170.484 441.445 168.286 440.375C168.286 440.375 167.891 431.808 168.962 430.625L177.641 430.118Z" fill="url(#paint114_linear_201_2)"/>
<path fill-rule="evenodd" clip-rule="evenodd" d="M152.111 427.863L155.436 424.877C159.043 421.664 164.341 420.199 164.848 416.874C164.904 417.212 164.904 417.55 164.848 418.001C164.341 421.326 159.099 422.791 155.436 426.004L152.111 428.991C149.293 431.527 146.306 429.723 146.926 426.004C146.645 428.145 149.744 430.005 152.111 427.863Z" fill="url(#paint115_linear_201_2)"/>
<path fill-rule="evenodd" clip-rule="evenodd" d="M149.237 340.172C145.743 345.131 151.66 368.35 147.884 383.792C145.067 395.176 144.165 409.886 145.968 425.609C146.926 427.356 156.113 426.342 159.212 416.93C157.972 399.629 162.368 391.4 164.003 378.607L164.848 341.975L149.237 340.172Z" fill="url(#paint116_linear_201_2)"/>
<path fill-rule="evenodd" clip-rule="evenodd" d="M158.198 346.765C157.24 362.151 170.54 384.187 167.102 395.458C163.383 407.744 167.159 423.186 167.215 437.05C167.215 437.05 177.585 438.008 183.164 431.865C176.57 404.532 189.42 377.649 182.431 347.442L158.198 346.765Z" fill="url(#paint117_linear_201_2)"/>
<path fill-rule="evenodd" clip-rule="evenodd" d="M179.05 329.858C179.444 314.529 176.57 299.369 176.57 299.369C175.218 297.397 173.527 295.65 171.554 294.241L167.778 289.676C162.988 288.492 158.31 287.083 153.746 285.393L149.181 287.365L146.926 287.478C144.897 287.59 139.544 297.002 142.023 304.103C141.967 304.441 150.026 319.489 150.646 325.519C150.702 326.082 151.717 333.86 148.504 339.721C148.504 339.721 148.786 341.299 149.913 342.201C158.141 352.401 179.613 351.387 179.952 348.963C181.98 348.738 182.319 346.484 182.319 344.68C182.544 342.539 179.05 329.858 179.05 329.858Z" fill="url(#paint118_linear_201_2)"/>
<path fill-rule="evenodd" clip-rule="evenodd" d="M184.855 316.727L180.628 324.786C180.628 324.786 181.699 313.458 181.699 309.795C181.699 307.71 180.008 304.61 178.599 302.356C177.359 300.44 174.823 299.764 172.851 300.947C167.159 304.216 168.117 309.682 168.117 309.682L170.822 335.494C171.16 339.045 174.823 341.975 178.035 340.341C184.46 337.128 185.813 327.717 189.983 320.052C189.476 316.389 185.587 316.502 184.855 316.727Z" fill="url(#paint119_linear_201_2)"/>
<path fill-rule="evenodd" clip-rule="evenodd" d="M221.43 314.811L238.056 325.632L256.597 312.895L243.466 304.272L221.43 314.811Z" fill="url(#paint120_linear_201_2)"/>
<path fill-rule="evenodd" clip-rule="evenodd" d="M219.571 315.149L234.28 320.898L250.623 305.456L236.309 298.975L219.571 315.149Z" fill="white"/>
<defs>
<linearGradient id="paint0_linear_201_2" x1="8.69694" y1="379.641" x2="652.407" y2="379.641" gradientUnits="userSpaceOnUse">
<stop offset="0.125" stop-color="#A2A2A2"/>
<stop offset="1" stop-color="#EFEFEF"/>
</linearGradient>
<linearGradient id="paint1_linear_201_2" x1="0.0192368" y1="369.454" x2="635.546" y2="369.454" gradientUnits="userSpaceOnUse">
<stop stop-color="#130E3E"/>
<stop offset="0.53" stop-color="#523CA8"/>
<stop offset="1" stop-color="#7F6EC0"/>
</linearGradient>
<linearGradient id="paint2_linear_201_2" x1="596.284" y1="307.177" x2="619.629" y2="307.177" gradientUnits="userSpaceOnUse">
<stop offset="0.125" stop-color="#A2A2A2"/>
<stop offset="1" stop-color="#EFEFEF"/>
</linearGradient>
<linearGradient id="paint3_linear_201_2" x1="579.844" y1="297.684" x2="603.189" y2="297.684" gradientUnits="userSpaceOnUse">
<stop offset="0.125" stop-color="#A2A2A2"/>
<stop offset="1" stop-color="#EFEFEF"/>
</linearGradient>
<linearGradient id="paint4_linear_201_2" x1="563.404" y1="288.192" x2="586.749" y2="288.192" gradientUnits="userSpaceOnUse">
<stop offset="0.125" stop-color="#A2A2A2"/>
<stop offset="1" stop-color="#EFEFEF"/>
</linearGradient>
<linearGradient id="paint5_linear_201_2" x1="546.963" y1="278.699" x2="570.308" y2="278.699" gradientUnits="userSpaceOnUse">
<stop offset="0.125" stop-color="#A2A2A2"/>
<stop offset="1" stop-color="#EFEFEF"/>
</linearGradient>
<linearGradient id="paint6_linear_201_2" x1="530.523" y1="269.207" x2="553.868" y2="269.207" gradientUnits="userSpaceOnUse">
<stop offset="0.125" stop-color="#A2A2A2"/>
<stop offset="1" stop-color="#EFEFEF"/>
</linearGradient>
<linearGradient id="paint7_linear_201_2" x1="514.083" y1="259.714" x2="537.428" y2="259.714" gradientUnits="userSpaceOnUse">
<stop offset="0.125" stop-color="#A2A2A2"/>
<stop offset="1" stop-color="#EFEFEF"/>
</linearGradient>
<linearGradient id="paint8_linear_201_2" x1="497.642" y1="250.222" x2="520.987" y2="250.222" gradientUnits="userSpaceOnUse">
<stop offset="0.125" stop-color="#A2A2A2"/>
<stop offset="1" stop-color="#EFEFEF"/>
</linearGradient>
<linearGradient id="paint9_linear_201_2" x1="481.202" y1="240.73" x2="504.547" y2="240.73" gradientUnits="userSpaceOnUse">
<stop offset="0.125" stop-color="#A2A2A2"/>
<stop offset="1" stop-color="#EFEFEF"/>
</linearGradient>
<linearGradient id="paint10_linear_201_2" x1="464.762" y1="231.237" x2="488.107" y2="231.237" gradientUnits="userSpaceOnUse">
<stop offset="0.125" stop-color="#A2A2A2"/>
<stop offset="1" stop-color="#EFEFEF"/>
</linearGradient>
<linearGradient id="paint11_linear_201_2" x1="448.321" y1="221.745" x2="471.667" y2="221.745" gradientUnits="userSpaceOnUse">
<stop offset="0.125" stop-color="#A2A2A2"/>
<stop offset="1" stop-color="#EFEFEF"/>
</linearGradient>
<linearGradient id="paint12_linear_201_2" x1="431.881" y1="212.253" x2="455.226" y2="212.253" gradientUnits="userSpaceOnUse">
<stop offset="0.125" stop-color="#A2A2A2"/>
<stop offset="1" stop-color="#EFEFEF"/>
</linearGradient>
<linearGradient id="paint13_linear_201_2" x1="415.441" y1="202.76" x2="438.786" y2="202.76" gradientUnits="userSpaceOnUse">
<stop offset="0.125" stop-color="#A2A2A2"/>
<stop offset="1" stop-color="#EFEFEF"/>
</linearGradient>
<linearGradient id="paint14_linear_201_2" x1="399.001" y1="193.268" x2="422.346" y2="193.268" gradientUnits="userSpaceOnUse">
<stop offset="0.125" stop-color="#A2A2A2"/>
<stop offset="1" stop-color="#EFEFEF"/>
</linearGradient>
<linearGradient id="paint15_linear_201_2" x1="382.56" y1="183.775" x2="405.905" y2="183.775" gradientUnits="userSpaceOnUse">
<stop offset="0.125" stop-color="#A2A2A2"/>
<stop offset="1" stop-color="#EFEFEF"/>
</linearGradient>
<linearGradient id="paint16_linear_201_2" x1="363.685" y1="262.536" x2="582.528" y2="262.536" gradientUnits="userSpaceOnUse">
<stop offset="0.125" stop-color="#A2A2A2"/>
<stop offset="1" stop-color="#EFEFEF"/>
</linearGradient>
<linearGradient id="paint17_linear_201_2" x1="348.284" y1="271.428" x2="567.126" y2="271.428" gradientUnits="userSpaceOnUse">
<stop offset="0.125" stop-color="#A2A2A2"/>
<stop offset="1" stop-color="#EFEFEF"/>
</linearGradient>
<linearGradient id="paint18_linear_201_2" x1="332.882" y1="280.32" x2="551.724" y2="280.32" gradientUnits="userSpaceOnUse">
<stop offset="0.125" stop-color="#A2A2A2"/>
<stop offset="1" stop-color="#EFEFEF"/>
</linearGradient>
<linearGradient id="paint19_linear_201_2" x1="317.48" y1="289.213" x2="536.322" y2="289.213" gradientUnits="userSpaceOnUse">
<stop offset="0.125" stop-color="#A2A2A2"/>
<stop offset="1" stop-color="#EFEFEF"/>
</linearGradient>
<linearGradient id="paint20_linear_201_2" x1="302.078" y1="298.105" x2="520.92" y2="298.105" gradientUnits="userSpaceOnUse">
<stop offset="0.125" stop-color="#A2A2A2"/>
<stop offset="1" stop-color="#EFEFEF"/>
</linearGradient>
<linearGradient id="paint21_linear_201_2" x1="286.676" y1="306.997" x2="505.518" y2="306.997" gradientUnits="userSpaceOnUse">
<stop offset="0.125" stop-color="#A2A2A2"/>
<stop offset="1" stop-color="#EFEFEF"/>
</linearGradient>
<linearGradient id="paint22_linear_201_2" x1="271.274" y1="315.889" x2="490.116" y2="315.889" gradientUnits="userSpaceOnUse">
<stop offset="0.125" stop-color="#A2A2A2"/>
<stop offset="1" stop-color="#EFEFEF"/>
</linearGradient>
<linearGradient id="paint23_linear_201_2" x1="255.872" y1="324.782" x2="474.714" y2="324.782" gradientUnits="userSpaceOnUse">
<stop offset="0.125" stop-color="#A2A2A2"/>
<stop offset="1" stop-color="#EFEFEF"/>
</linearGradient>
<linearGradient id="paint24_linear_201_2" x1="240.47" y1="333.674" x2="459.312" y2="333.674" gradientUnits="userSpaceOnUse">
<stop offset="0.125" stop-color="#A2A2A2"/>
<stop offset="1" stop-color="#EFEFEF"/>
</linearGradient>
<linearGradient id="paint25_linear_201_2" x1="225.068" y1="342.566" x2="443.91" y2="342.566" gradientUnits="userSpaceOnUse">
<stop offset="0.125" stop-color="#A2A2A2"/>
<stop offset="1" stop-color="#EFEFEF"/>
</linearGradient>
<linearGradient id="paint26_linear_201_2" x1="209.666" y1="351.459" x2="428.508" y2="351.459" gradientUnits="userSpaceOnUse">
<stop offset="0.125" stop-color="#A2A2A2"/>
<stop offset="1" stop-color="#EFEFEF"/>
</linearGradient>
<linearGradient id="paint27_linear_201_2" x1="178.862" y1="369.243" x2="397.705" y2="369.243" gradientUnits="userSpaceOnUse">
<stop offset="0.125" stop-color="#A2A2A2"/>
<stop offset="1" stop-color="#EFEFEF"/>
</linearGradient>
<linearGradient id="paint28_linear_201_2" x1="148.058" y1="387.028" x2="366.901" y2="387.028" gradientUnits="userSpaceOnUse">
<stop offset="0.125" stop-color="#A2A2A2"/>
<stop offset="1" stop-color="#EFEFEF"/>
</linearGradient>
<linearGradient id="paint29_linear_201_2" x1="132.657" y1="395.92" x2="351.499" y2="395.92" gradientUnits="userSpaceOnUse">
<stop offset="0.125" stop-color="#A2A2A2"/>
<stop offset="1" stop-color="#EFEFEF"/>
</linearGradient>
<linearGradient id="paint30_linear_201_2" x1="117.255" y1="404.812" x2="336.097" y2="404.812" gradientUnits="userSpaceOnUse">
<stop offset="0.125" stop-color="#A2A2A2"/>
<stop offset="1" stop-color="#EFEFEF"/>
</linearGradient>
<linearGradient id="paint31_linear_201_2" x1="101.853" y1="413.704" x2="320.695" y2="413.704" gradientUnits="userSpaceOnUse">
<stop offset="0.125" stop-color="#A2A2A2"/>
<stop offset="1" stop-color="#EFEFEF"/>
</linearGradient>
<linearGradient id="paint32_linear_201_2" x1="86.4507" y1="422.597" x2="305.293" y2="422.597" gradientUnits="userSpaceOnUse">
<stop offset="0.125" stop-color="#A2A2A2"/>
<stop offset="1" stop-color="#EFEFEF"/>
</linearGradient>
<linearGradient id="paint33_linear_201_2" x1="71.0488" y1="431.489" x2="289.891" y2="431.489" gradientUnits="userSpaceOnUse">
<stop offset="0.125" stop-color="#A2A2A2"/>
<stop offset="1" stop-color="#EFEFEF"/>
</linearGradient>
<linearGradient id="paint34_linear_201_2" x1="430.674" y1="199.15" x2="489.165" y2="199.15" gradientUnits="userSpaceOnUse">
<stop stop-color="#3D0EAE"/>
<stop offset="1" stop-color="#7756E5"/>
</linearGradient>
<linearGradient id="paint35_linear_201_2" x1="450.959" y1="158.705" x2="470.373" y2="158.705" gradientUnits="userSpaceOnUse">
<stop stop-color="#3D0EAE"/>
<stop offset="1" stop-color="#7756E5"/>
</linearGradient>
<linearGradient id="paint36_linear_201_2" x1="469.273" y1="157.634" x2="474.184" y2="157.117" gradientUnits="userSpaceOnUse">
<stop stop-color="#3D0EAE"/>
<stop offset="1" stop-color="#7756E5"/>
</linearGradient>
<linearGradient id="paint37_linear_201_2" x1="457.613" y1="42.3745" x2="462.66" y2="42.3745" gradientUnits="userSpaceOnUse">
<stop offset="0.125" stop-color="#A2A2A2"/>
<stop offset="1" stop-color="#EFEFEF"/>
</linearGradient>
<linearGradient id="paint38_linear_201_2" x1="370.185" y1="197.877" x2="575.187" y2="197.877" gradientUnits="userSpaceOnUse">
<stop offset="0.125" stop-color="#A2A2A2"/>
<stop offset="1" stop-color="#EFEFEF"/>
</linearGradient>
<linearGradient id="paint39_linear_201_2" x1="466.656" y1="207.367" x2="470.275" y2="201.163" gradientUnits="userSpaceOnUse">
<stop offset="0.125" stop-color="#A2A2A2"/>
<stop offset="1" stop-color="#EFEFEF"/>
</linearGradient>
<linearGradient id="paint40_linear_201_2" x1="567.674" y1="261.624" x2="576.473" y2="261.624" gradientUnits="userSpaceOnUse">
<stop offset="0.125" stop-color="#A2A2A2"/>
<stop offset="1" stop-color="#EFEFEF"/>
</linearGradient>
<linearGradient id="paint41_linear_201_2" x1="376.17" y1="132.052" x2="566.161" y2="132.052" gradientUnits="userSpaceOnUse">
<stop stop-color="#3D0EAE"/>
<stop offset="1" stop-color="#7756E5"/>
</linearGradient>
<linearGradient id="paint42_linear_201_2" x1="368.354" y1="60.321" x2="572.074" y2="60.321" gradientUnits="userSpaceOnUse">
<stop offset="0.125" stop-color="#A2A2A2"/>
<stop offset="1" stop-color="#EFEFEF"/>
</linearGradient>
<linearGradient id="paint43_linear_201_2" x1="370.518" y1="61.3842" x2="572.644" y2="61.3842" gradientUnits="userSpaceOnUse">
<stop offset="0.125" stop-color="#A2A2A2"/>
<stop offset="1" stop-color="#EFEFEF"/>
</linearGradient>
<linearGradient id="paint44_linear_201_2" x1="429.761" y1="272.208" x2="459.984" y2="272.208" gradientUnits="userSpaceOnUse">
<stop stop-color="#3D0EAE"/>
<stop offset="1" stop-color="#7756E5"/>
</linearGradient>
<linearGradient id="paint45_linear_201_2" x1="458.169" y1="259.532" x2="485.445" y2="259.532" gradientUnits="userSpaceOnUse">
<stop stop-color="#3D0EAE"/>
<stop offset="1" stop-color="#7756E5"/>
</linearGradient>
<linearGradient id="paint46_linear_201_2" x1="197.753" y1="362.605" x2="453.509" y2="362.605" gradientUnits="userSpaceOnUse">
<stop offset="0.125" stop-color="#A2A2A2"/>
<stop offset="1" stop-color="#EFEFEF"/>
</linearGradient>
<linearGradient id="paint47_linear_201_2" x1="286.501" y1="339.624" x2="430.566" y2="261.732" gradientUnits="userSpaceOnUse">
<stop stop-color="#130E3E"/>
<stop offset="1" stop-color="#543DAB"/>
</linearGradient>
<linearGradient id="paint48_linear_201_2" x1="244.824" y1="372.763" x2="194.504" y2="336.919" gradientUnits="userSpaceOnUse">
<stop stop-color="#130E3E"/>
<stop offset="0.53" stop-color="#523CA8"/>
<stop offset="1" stop-color="#7F6EC0"/>
</linearGradient>
<linearGradient id="paint49_linear_201_2" x1="429.526" y1="343.513" x2="441.068" y2="343.513" gradientUnits="userSpaceOnUse">
<stop stop-color="#A6232F"/>
<stop offset="1" stop-color="#E42D3F"/>
</linearGradient>
<linearGradient id="paint50_linear_201_2" x1="531.608" y1="296.342" x2="299.474" y2="296.342" gradientUnits="userSpaceOnUse">
<stop stop-color="#E42D3F"/>
<stop offset="0.526042" stop-color="#FA5666"/>
<stop offset="1" stop-color="#F55D6C"/>
</linearGradient>
<linearGradient id="paint51_linear_201_2" x1="337.819" y1="344.192" x2="429.68" y2="344.192" gradientUnits="userSpaceOnUse">
<stop stop-color="#B42230"/>
<stop offset="1" stop-color="#FA5666"/>
</linearGradient>
<linearGradient id="paint52_linear_201_2" x1="402.88" y1="387.785" x2="146.453" y2="387.785" gradientUnits="userSpaceOnUse">
<stop stop-color="#3D0EAE"/>
<stop offset="1"/>
</linearGradient>
<linearGradient id="paint53_linear_201_2" x1="375.396" y1="408.347" x2="292.678" y2="325.63" gradientUnits="userSpaceOnUse">
<stop stop-color="#3D0EAE"/>
<stop offset="1" stop-color="#A0A2FF"/>
</linearGradient>
<linearGradient id="paint54_linear_201_2" x1="35.7845" y1="268.641" x2="279.584" y2="268.641" gradientUnits="userSpaceOnUse">
<stop offset="0.125" stop-color="#A2A2A2"/>
<stop offset="1" stop-color="#EFEFEF"/>
</linearGradient>
<linearGradient id="paint55_linear_201_2" x1="307.238" y1="35.2876" x2="236.911" y2="35.2876" gradientUnits="userSpaceOnUse">
<stop stop-color="#E42D3F"/>
<stop offset="1" stop-color="#F55D6C"/>
</linearGradient>
<linearGradient id="paint56_linear_201_2" x1="239.177" y1="137.303" x2="271.603" y2="137.303" gradientUnits="userSpaceOnUse">
<stop stop-color="#B42230"/>
<stop offset="1" stop-color="#FA5666"/>
</linearGradient>
<linearGradient id="paint57_linear_201_2" x1="240.03" y1="137.303" x2="194.509" y2="137.303" gradientUnits="userSpaceOnUse">
<stop stop-color="#E42D3F"/>
<stop offset="1" stop-color="#E42D3F"/>
</linearGradient>
<linearGradient id="paint58_linear_201_2" x1="281.389" y1="85.3662" x2="194.092" y2="85.3662" gradientUnits="userSpaceOnUse">
<stop stop-color="#3D0EAE"/>
<stop offset="0.56" stop-color="#7756E5"/>
<stop offset="1" stop-color="#A0A2FF"/>
</linearGradient>
<linearGradient id="paint59_linear_201_2" x1="202.616" y1="171.703" x2="235.041" y2="171.703" gradientUnits="userSpaceOnUse">
<stop stop-color="#3D0EAE"/>
<stop offset="1" stop-color="#7756E5"/>
</linearGradient>
<linearGradient id="paint60_linear_201_2" x1="252.438" y1="171.703" x2="150.908" y2="171.703" gradientUnits="userSpaceOnUse">
<stop stop-color="#3D0EAE"/>
<stop offset="0.56" stop-color="#7756E5"/>
<stop offset="1" stop-color="#A0A2FF"/>
</linearGradient>
<linearGradient id="paint61_linear_201_2" x1="221.936" y1="150.088" x2="159.844" y2="150.088" gradientUnits="userSpaceOnUse">
<stop stop-color="#3D0EAE"/>
<stop offset="0.56" stop-color="#7756E5"/>
<stop offset="1" stop-color="#A0A2FF"/>
</linearGradient>
<linearGradient id="paint62_linear_201_2" x1="170.19" y1="213.424" x2="202.617" y2="213.424" gradientUnits="userSpaceOnUse">
<stop stop-color="#3D0EAE"/>
<stop offset="1" stop-color="#7756E5"/>
</linearGradient>
<linearGradient id="paint63_linear_201_2" x1="175.238" y1="216.919" x2="124.919" y2="208.647" gradientUnits="userSpaceOnUse">
<stop stop-color="#3D0EAE"/>
<stop offset="0.56" stop-color="#7756E5"/>
<stop offset="1" stop-color="#A0A2FF"/>
</linearGradient>
<linearGradient id="paint64_linear_201_2" x1="189.451" y1="141.579" x2="125.561" y2="141.579" gradientUnits="userSpaceOnUse">
<stop stop-color="#3D0EAE"/>
<stop offset="0.56" stop-color="#7756E5"/>
<stop offset="1" stop-color="#A0A2FF"/>
</linearGradient>
<linearGradient id="paint65_linear_201_2" x1="135.288" y1="218.219" x2="167.711" y2="218.219" gradientUnits="userSpaceOnUse">
<stop stop-color="#7756E5"/>
<stop offset="1" stop-color="#3D0EAE"/>
</linearGradient>
<linearGradient id="paint66_linear_201_2" x1="159.984" y1="218.219" x2="72.4622" y2="218.219" gradientUnits="userSpaceOnUse">
<stop stop-color="#3D0EAE"/>
<stop offset="0.56" stop-color="#7756E5"/>
<stop offset="1" stop-color="#A0A2FF"/>
</linearGradient>
<linearGradient id="paint67_linear_201_2" x1="151.626" y1="237.804" x2="100.749" y2="237.804" gradientUnits="userSpaceOnUse">
<stop stop-color="#3D0EAE"/>
<stop offset="0.56" stop-color="#7756E5"/>
<stop offset="1" stop-color="#A0A2FF"/>
</linearGradient>
<linearGradient id="paint68_linear_201_2" x1="109.898" y1="282.425" x2="160.563" y2="254.508" gradientUnits="userSpaceOnUse">
<stop stop-color="#3D0EAE"/>
<stop offset="1" stop-color="#7756E5"/>
</linearGradient>
<linearGradient id="paint69_linear_201_2" x1="124.226" y1="275.192" x2="51.4879" y2="275.192" gradientUnits="userSpaceOnUse">
<stop stop-color="#3D0EAE"/>
<stop offset="0.56" stop-color="#7756E5"/>
<stop offset="1" stop-color="#A0A2FF"/>
</linearGradient>
<linearGradient id="paint70_linear_201_2" x1="151.626" y1="282.504" x2="58.5467" y2="282.504" gradientUnits="userSpaceOnUse">
<stop stop-color="#3D0EAE"/>
<stop offset="0.56" stop-color="#7756E5"/>
<stop offset="1" stop-color="#A0A2FF"/>
</linearGradient>
<linearGradient id="paint71_linear_201_2" x1="78.1063" y1="314.513" x2="133.423" y2="280.392" gradientUnits="userSpaceOnUse">
<stop stop-color="#3D0EAE"/>
<stop offset="1" stop-color="#7756E5"/>
</linearGradient>
<linearGradient id="paint72_linear_201_2" x1="92.6904" y1="307.713" x2="1.95314" y2="307.713" gradientUnits="userSpaceOnUse">
<stop stop-color="#3D0EAE"/>
<stop offset="0.56" stop-color="#7756E5"/>
<stop offset="1" stop-color="#A0A2FF"/>
</linearGradient>
<linearGradient id="paint73_linear_201_2" x1="428.665" y1="161.492" x2="428.665" y2="109.753" gradientUnits="userSpaceOnUse">
<stop stop-color="#3D0EAE"/>
<stop offset="1" stop-color="#7756E5"/>
</linearGradient>
<linearGradient id="paint74_linear_201_2" x1="447.91" y1="161.492" x2="447.91" y2="109.753" gradientUnits="userSpaceOnUse">
<stop stop-color="#3D0EAE"/>
<stop offset="1" stop-color="#7756E5"/>
</linearGradient>
<linearGradient id="paint75_linear_201_2" x1="467.214" y1="161.493" x2="467.214" y2="109.753" gradientUnits="userSpaceOnUse">
<stop stop-color="#3D0EAE"/>
<stop offset="1" stop-color="#7756E5"/>
</linearGradient>
<linearGradient id="paint76_linear_201_2" x1="486.508" y1="170.281" x2="486.508" y2="93.6562" gradientUnits="userSpaceOnUse">
<stop stop-color="#B42230"/>
<stop offset="1" stop-color="#FA5666"/>
</linearGradient>
<linearGradient id="paint77_linear_201_2" x1="161.561" y1="161.624" x2="179.066" y2="161.624" gradientUnits="userSpaceOnUse">
<stop stop-color="#FF8200"/>
<stop offset="1" stop-color="#FFC500"/>
</linearGradient>
<linearGradient id="paint78_linear_201_2" x1="102.445" y1="170.15" x2="165.124" y2="170.15" gradientUnits="userSpaceOnUse">
<stop stop-color="#3D0EAE"/>
<stop offset="1" stop-color="#7756E5"/>
</linearGradient>
<linearGradient id="paint79_linear_201_2" x1="117.497" y1="302.297" x2="131.423" y2="302.297" gradientUnits="userSpaceOnUse">
<stop stop-color="#130E3E"/>
<stop offset="1" stop-color="#543DAB"/>
</linearGradient>
<linearGradient id="paint80_linear_201_2" x1="135.604" y1="288.509" x2="161.865" y2="288.509" gradientUnits="userSpaceOnUse">
<stop stop-color="#130E3E"/>
<stop offset="1" stop-color="#543DAB"/>
</linearGradient>
<linearGradient id="paint81_linear_201_2" x1="119.838" y1="258.713" x2="128.11" y2="233.898" gradientUnits="userSpaceOnUse">
<stop stop-color="#130E3E"/>
<stop offset="1" stop-color="#543DAB"/>
</linearGradient>
<linearGradient id="paint82_linear_201_2" x1="105.53" y1="257.866" x2="113.113" y2="224.434" gradientUnits="userSpaceOnUse">
<stop stop-color="#130E3E"/>
<stop offset="1" stop-color="#543DAB"/>
</linearGradient>
<linearGradient id="paint83_linear_201_2" x1="100.395" y1="200.774" x2="79.7155" y2="176.734" gradientUnits="userSpaceOnUse">
<stop stop-color="#3D0EAE"/>
<stop offset="1" stop-color="#7756E5"/>
</linearGradient>
<linearGradient id="paint84_linear_201_2" x1="93.1196" y1="181.319" x2="104.476" y2="181.319" gradientUnits="userSpaceOnUse">
<stop offset="0.125" stop-color="#A2A2A2"/>
<stop offset="1" stop-color="#EFEFEF"/>
</linearGradient>
<linearGradient id="paint85_linear_201_2" x1="91.4746" y1="168.504" x2="104.196" y2="168.504" gradientUnits="userSpaceOnUse">
<stop stop-color="#3D0EAE"/>
<stop offset="1" stop-color="#A0A2FF"/>
</linearGradient>
<linearGradient id="paint86_linear_201_2" x1="85.0102" y1="155.077" x2="108.303" y2="152.14" gradientUnits="userSpaceOnUse">
<stop stop-color="#FF8200"/>
<stop offset="1" stop-color="#FFC500"/>
</linearGradient>
<linearGradient id="paint87_linear_201_2" x1="82.26" y1="149.015" x2="107.984" y2="149.015" gradientUnits="userSpaceOnUse">
<stop stop-color="#130E3E"/>
<stop offset="1" stop-color="#543DAB"/>
</linearGradient>
<linearGradient id="paint88_linear_201_2" x1="116.178" y1="203.476" x2="75.0779" y2="197.013" gradientUnits="userSpaceOnUse">
<stop stop-color="#3D0EAE"/>
<stop offset="1" stop-color="#7756E5"/>
</linearGradient>
<linearGradient id="paint89_linear_201_2" x1="263.052" y1="105.418" x2="268.411" y2="105.418" gradientUnits="userSpaceOnUse">
<stop stop-color="#130E3E"/>
<stop offset="1" stop-color="#543DAB"/>
</linearGradient>
<linearGradient id="paint90_linear_201_2" x1="327.535" y1="161.747" x2="350.365" y2="161.747" gradientUnits="userSpaceOnUse">
<stop stop-color="#3D0EAE"/>
<stop offset="1" stop-color="#A0A2FF"/>
</linearGradient>
<linearGradient id="paint91_linear_201_2" x1="215.006" y1="156.288" x2="233.43" y2="156.288" gradientUnits="userSpaceOnUse">
<stop stop-color="#FF8200"/>
<stop offset="1" stop-color="#FFC500"/>
</linearGradient>
<linearGradient id="paint92_linear_201_2" x1="231.249" y1="140.157" x2="268.022" y2="140.157" gradientUnits="userSpaceOnUse">
<stop stop-color="#3D0EAE"/>
<stop offset="1" stop-color="#7756E5"/>
</linearGradient>
<linearGradient id="paint93_linear_201_2" x1="280.568" y1="282.096" x2="292.915" y2="282.096" gradientUnits="userSpaceOnUse">
<stop stop-color="#130E3E"/>
<stop offset="1" stop-color="#543DAB"/>
</linearGradient>
<linearGradient id="paint94_linear_201_2" x1="253.579" y1="270.711" x2="276.861" y2="270.711" gradientUnits="userSpaceOnUse">
<stop stop-color="#130E3E"/>
<stop offset="1" stop-color="#543DAB"/>
</linearGradient>
<linearGradient id="paint95_linear_201_2" x1="258.141" y1="222.26" x2="277.164" y2="222.26" gradientUnits="userSpaceOnUse">
<stop stop-color="#130E3E"/>
<stop offset="1" stop-color="#543DAB"/>
</linearGradient>
<linearGradient id="paint96_linear_201_2" x1="271.692" y1="231.778" x2="293.866" y2="231.778" gradientUnits="userSpaceOnUse">
<stop stop-color="#130E3E"/>
<stop offset="1" stop-color="#543DAB"/>
</linearGradient>
<linearGradient id="paint97_linear_201_2" x1="271.314" y1="193.284" x2="271.314" y2="158.292" gradientUnits="userSpaceOnUse">
<stop offset="0.125" stop-color="#A2A2A2"/>
<stop offset="1" stop-color="#EFEFEF"/>
</linearGradient>
<linearGradient id="paint98_linear_201_2" x1="256.042" y1="155.238" x2="282.429" y2="155.238" gradientUnits="userSpaceOnUse">
<stop stop-color="#3D0EAE"/>
<stop offset="1" stop-color="#7756E5"/>
</linearGradient>
<linearGradient id="paint99_linear_201_2" x1="268.157" y1="124.403" x2="282.451" y2="124.403" gradientUnits="userSpaceOnUse">
<stop stop-color="#FF8200"/>
<stop offset="1" stop-color="#FFC500"/>
</linearGradient>
<linearGradient id="paint100_linear_201_2" x1="263.852" y1="108.29" x2="285.117" y2="108.29" gradientUnits="userSpaceOnUse">
<stop stop-color="#FF8200"/>
<stop offset="1" stop-color="#FFC500"/>
</linearGradient>
<linearGradient id="paint101_linear_201_2" x1="262.303" y1="103.484" x2="287.599" y2="103.484" gradientUnits="userSpaceOnUse">
<stop stop-color="#130E3E"/>
<stop offset="1" stop-color="#543DAB"/>
</linearGradient>
<linearGradient id="paint102_linear_201_2" x1="272.478" y1="162.238" x2="295.635" y2="162.238" gradientUnits="userSpaceOnUse">
<stop stop-color="#3D0EAE"/>
<stop offset="1" stop-color="#7756E5"/>
</linearGradient>
<linearGradient id="paint103_linear_201_2" x1="286.109" y1="148.009" x2="331.665" y2="148.009" gradientUnits="userSpaceOnUse">
<stop stop-color="#3D0EAE"/>
<stop offset="1" stop-color="#7756E5"/>
</linearGradient>
<linearGradient id="paint104_linear_201_2" x1="394.667" y1="332.936" x2="223.719" y2="276.412" gradientUnits="userSpaceOnUse">
<stop stop-color="#130E3E"/>
<stop offset="0.53" stop-color="#523CA8"/>
<stop offset="1" stop-color="#7F6EC0"/>
</linearGradient>
<linearGradient id="paint105_linear_201_2" x1="114.385" y1="214.412" x2="131.042" y2="214.412" gradientUnits="userSpaceOnUse">
<stop stop-color="#FF8200"/>
<stop offset="1" stop-color="#FFC500"/>
</linearGradient>
<linearGradient id="paint106_linear_201_2" x1="187.477" y1="305.017" x2="190.234" y2="286.578" gradientUnits="userSpaceOnUse">
<stop stop-color="#FF8200"/>
<stop offset="1" stop-color="#FFC500"/>
</linearGradient>
<linearGradient id="paint107_linear_201_2" x1="146.937" y1="421.316" x2="164.91" y2="421.316" gradientUnits="userSpaceOnUse">
<stop stop-color="#130E3E"/>
<stop offset="1" stop-color="#543DAB"/>
</linearGradient>
<linearGradient id="paint108_linear_201_2" x1="168.285" y1="437.909" x2="195.484" y2="437.909" gradientUnits="userSpaceOnUse">
<stop stop-color="#3D0EAE"/>
<stop offset="1" stop-color="#7756E5"/>
</linearGradient>
<linearGradient id="paint109_linear_201_2" x1="187.469" y1="321.062" x2="192.467" y2="307.449" gradientUnits="userSpaceOnUse">
<stop stop-color="#FF8200"/>
<stop offset="1" stop-color="#FFC500"/>
</linearGradient>
<linearGradient id="paint110_linear_201_2" x1="139.509" y1="297.677" x2="147.02" y2="297.677" gradientUnits="userSpaceOnUse">
<stop stop-color="#3D0EAE"/>
<stop offset="1" stop-color="#7756E5"/>
</linearGradient>
<linearGradient id="paint111_linear_201_2" x1="156.204" y1="279.524" x2="167.061" y2="269.701" gradientUnits="userSpaceOnUse">
<stop stop-color="#FF8200"/>
<stop offset="1" stop-color="#FFC500"/>
</linearGradient>
<linearGradient id="paint112_linear_201_2" x1="153.407" y1="286.179" x2="167.758" y2="286.179" gradientUnits="userSpaceOnUse">
<stop stop-color="#FF8200"/>
<stop offset="1" stop-color="#FFC500"/>
</linearGradient>
<linearGradient id="paint113_linear_201_2" x1="149.564" y1="271.024" x2="178.255" y2="271.024" gradientUnits="userSpaceOnUse">
<stop stop-color="#130E3E"/>
<stop offset="1" stop-color="#543DAB"/>
</linearGradient>
<linearGradient id="paint114_linear_201_2" x1="168.219" y1="435.715" x2="195.252" y2="435.715" gradientUnits="userSpaceOnUse">
<stop stop-color="#130E3E"/>
<stop offset="1" stop-color="#543DAB"/>
</linearGradient>
<linearGradient id="paint115_linear_201_2" x1="146.867" y1="423.491" x2="164.91" y2="423.491" gradientUnits="userSpaceOnUse">
<stop stop-color="#3D0EAE"/>
<stop offset="1" stop-color="#7756E5"/>
</linearGradient>
<linearGradient id="paint116_linear_201_2" x1="145.025" y1="383.259" x2="164.791" y2="383.259" gradientUnits="userSpaceOnUse">
<stop stop-color="#130E3E"/>
<stop offset="1" stop-color="#543DAB"/>
</linearGradient>
<linearGradient id="paint117_linear_201_2" x1="158.173" y1="391.954" x2="184.613" y2="391.954" gradientUnits="userSpaceOnUse">
<stop stop-color="#130E3E"/>
<stop offset="1" stop-color="#543DAB"/>
</linearGradient>
<linearGradient id="paint118_linear_201_2" x1="141.487" y1="318.119" x2="182.47" y2="318.119" gradientUnits="userSpaceOnUse">
<stop stop-color="#3D0EAE"/>
<stop offset="1" stop-color="#7F6EC0"/>
</linearGradient>
<linearGradient id="paint119_linear_201_2" x1="168.062" y1="320.575" x2="189.971" y2="320.575" gradientUnits="userSpaceOnUse">
<stop stop-color="#3D0EAE"/>
<stop offset="1" stop-color="#7756E5"/>
</linearGradient>
<linearGradient id="paint120_linear_201_2" x1="221.419" y1="314.961" x2="256.576" y2="314.961" gradientUnits="userSpaceOnUse">
<stop offset="0.125" stop-color="#A2A2A2"/>
<stop offset="1" stop-color="#EFEFEF"/>
</linearGradient>
</defs>
</svg>
